<?xml version="1.0" encoding="iso-8859-1"?>
<!-- Generator: Adobe Illustrator 17.1.0, SVG Export Plug-In . SVG Version: 6.00 Build 0)  -->
<!DOCTYPE svg PUBLIC "-//W3C//DTD SVG 1.1//EN" "http://www.w3.org/Graphics/SVG/1.1/DTD/svg11.dtd">
<svg version="1.1" id="Layer_1" xmlns="http://www.w3.org/2000/svg" xmlns:xlink="http://www.w3.org/1999/xlink" x="0px" y="0px"
	 viewBox="0 0 239.95 239.95" style="enable-background:new 0 0 239.95 239.95;" xml:space="preserve">
<g>
	<g>
		<g>
			<path style="fill-rule:evenodd;clip-rule:evenodd;" d="M119.492,139.021c0.009-1.796-0.238-3.697-0.168-5.298
				c0.106-1.927-0.071-3.093-0.071-5.363c0-2.655,0.104-5.23-1.78-5.884c-1.472-0.518-4.126,0.36-5.319-0.323
				c-1.129-0.63-0.695-3.243-0.6-5.263c0.188-5.307-0.151-10.545,0.084-15.387c0.34-7.026,0.276-13.435,0.461-19.939
				c0.178-6.421,0.62-12.599,0.62-19.67c0-5.023,0.07-9.767,0.07-14.986c0-2.786,0.557-5.399-2.324-4.981
				c-1.98,0.292-2.671,1.752-3.902,2.943c-2.787,2.807-5.003,5.799-7.828,8.399c-2.662,2.46-5.538,5.432-7.919,8.331
				c-0.807,0.958-1.482,2.34-1.717,3.715c-0.34,2.076-0.186,4.58-0.299,6.982c-0.126,2.364-0.162,4.854-0.162,7.161
				c0,9.71-0.435,19.042-0.628,28.412c-0.047,2.258-0.075,4.79-0.146,7.141c-0.064,1.697,0.3,5.538-0.536,6.755
				c-0.504,0.725-2.954,0.725-4.345,0.789c-3.656,0.169-5.844,0.071-9.561,0.071c-1.784,0-3.926,0.194-4.14-0.787
				c-0.198-0.913,1.423-2.451,1.87-3.023c1.813-2.183,2.807-3.42,4.499-5.357c0.774-0.863,1.784-1.787,2.191-2.803
				c0.786-1.914,0.277-5.513,0.378-7.829c0.261-5.07,0.525-9.783,0.321-15.07c-0.1-2.268-0.16-5.369-2.176-5.525
				c-1.563-0.098-2.829,1.39-3.889,2.336c-3.201,2.972-5.618,6.665-8.383,9.856c-2.718,3.147-5.637,6.609-8.311,9.885
				c-4.76,5.808-9.1,11.032-13.436,16.997c-0.8,1.125-1.729,2.262-2.643,3.396c-0.844,1.141-1.908,2.195-2.715,3.354
				c-1.658,2.372-3.765,4.784-4.885,7.303c-1.746,3.877,0.513,5.916,2.703,7.612c0.998,0.765,2.04,1.513,3.344,1.715
				c1.719,0.279,3.885,0.02,5.976,0c2.049-0.027,4.11-0.083,6.068-0.083c8.509,0,15.392-0.711,24.085-0.309
				c1.686,0.093,3.703,0.111,5.813,0c1.658-0.07,4.895-0.211,5.754,0.457c0.977,0.769,0.372,2.832,0.464,4.59
				c0.071,1.476,0.135,3.367,0.071,4.517c-0.36,7.687-0.152,14.507-0.152,22.207c0,1.564-0.251,3.261,0.237,4.179
				c0.938,1.84,4.621,1.388,6.915,1.388c3.788,0,7.767,0.534,11.716,0.097c1.793-0.177,4.347-0.402,5.045-1.331
				c0.69-0.874,0.384-4.131,0.384-5.731c0-7.585,0.08-14.17,0.327-21.418c0.064-2.027-0.564-7.069,0.463-8.399
				c1.173-1.522,5.588,0.132,7.234-1.184C119.463,142.964,119.479,140.389,119.492,139.021z"/>
			<path style="fill-rule:evenodd;clip-rule:evenodd;" d="M42.11,99.546c1.248,0,2.233-1.28,2.966-2.104
				c1.711-1.914,2.653-3.183,4.216-4.999c0.799-0.905,1.916-2.154,2.671-2.981c0.908-1.004,2.425-2.532,3.517-3.603
				c2.495-2.349,3.824-3.664,6.116-5.962c1.134-1.136,2.387-2.34,2.869-3.573c1.181-2.941,0.74-9.148,0.445-13.094
				c-0.135-1.808-0.816-4.24-1.541-5.359c-0.298-0.523-1.071-0.732-1.487-0.464c-2.441,1.71-3.321,2.375-5.058,3.924
				c-0.856,0.789-1.683,1.597-2.512,2.294c-1.662,1.444-3.365,2.887-5.128,4.415c-2.541,2.22-4.943,4.667-7.337,7.006
				c-1.878,1.829-3.442,3.226-3.248,6.456c0.189,3.398,0.507,6.835,0.744,10.102C39.58,94.682,39.727,99.546,42.11,99.546z"/>
		</g>
		<path style="fill-rule:evenodd;clip-rule:evenodd;" d="M173.781,80.819c-5.311,1.217-10.535,2.37-15.973,2.769
			c-1.592,0.118-3.145,0.213-4.727,0.293c-5.276,0.246-10.76,0.342-15.997-0.712c-2.398-0.481-5.016-1.328-7.436-0.537
			c-1.621,0.504-2.424,2.256-3.108,3.877c-1.486,3.491-0.398,7.969-0.235,11.885c0.184,4.789,0.164,9.572,0.129,14.343
			c-0.043,2.763-0.171,5.638-0.192,8.408c-0.035,1.985-0.492,4.773,0.71,6.552c0.845,1.242,2.142,0.989,3.224,1.06
			c0.613,0.05,0.244,0.027,0.859-0.032c2.4-0.265,4.894-1.865,6.05-3.796c1.091-1.817,2.015-3.371,2.506-5.413
			c0.493-2.115,1.06-4.223,2.276-6.074c1.512-2.313,3.748-3.912,6.422-4.635c1.868-0.526,4.509-0.79,6.73-1.116
			c3.118-0.455,5.354-0.738,8.922-1.284c2.952-0.437,5.516-1.127,8.343-1.706c1.224-0.273,2.389-0.124,2.313,0.794
			c-0.131,1.517-1.098,2.883-1.832,4.18c-1.04,1.855-2.258,3.609-3.308,5.476c-2.604,4.58-5.317,9.129-8.085,13.607
			c-1.177,1.945-2.442,3.841-3.563,5.837c-3.309,5.795-7.303,11.175-10.583,16.987c-4.547,8.088-9.204,15.723-14.416,23.396
			c-4.285,6.273-9.457,12.471-13.11,18.191c-0.959,1.504-3.014,3.367-2.349,5.127c0.798,2.112,3.085,1.252,4.448,1.323
			c2.21,0.124,4.163,0.137,6.25,0.124c6.115-0.036,12.174,0.413,18.342,0.139c1.057-0.04,2.128-0.015,3.194-0.235
			c2.448-0.506,3.874-2.445,4.63-4.726c0.626-1.976,0.855-4.074,1.377-6.106c0.601-2.274,1.473-4.509,2.17-6.782
			c2.24-7.318,5.515-14.886,9.132-21.637c2.487-4.665,5.056-9.346,7.619-13.993c8.902-16.037,18.179-31.828,27.514-47.615
			c1.326-2.271,2.67-4.325,4.023-6.616c1.316-2.171,2.573-4.784,3.347-7.297c0.617-1.973,0.101-4.777-2.186-5.666
			c-1.801-0.712-3.764-0.901-5.669-1.035c-3.689-0.332-7.528-0.066-11.243,0.107C184.727,78.537,179.214,79.568,173.781,80.819z"/>
	</g>
	<path d="M119.973,239.95C53.819,239.95,0,186.128,0,119.977C0,53.826,53.819,0.005,119.973,0.005
		c66.15,0,119.973,53.822,119.973,119.973C239.945,186.128,186.123,239.95,119.973,239.95z M119.973,9.668
		C59.147,9.668,9.66,59.15,9.66,119.977c0,60.826,49.487,110.311,110.313,110.311c60.824,0,110.31-49.485,110.31-110.311
		C230.282,59.15,180.797,9.668,119.973,9.668z"/>
</g>
</svg>
