<?xml version="1.0" encoding="iso-8859-1"?>
<!-- Generator: Adobe Illustrator 17.1.0, SVG Export Plug-In . SVG Version: 6.00 Build 0)  -->
<!DOCTYPE svg PUBLIC "-//W3C//DTD SVG 1.1//EN" "http://www.w3.org/Graphics/SVG/1.1/DTD/svg11.dtd">
<svg version="1.1" id="Layer_1" xmlns="http://www.w3.org/2000/svg" xmlns:xlink="http://www.w3.org/1999/xlink" x="0px" y="0px"
	 viewBox="0 0 983.06 106.02" style="enable-background:new 0 0 983.06 106.02;" xml:space="preserve">
<g id="XMLID_62_">
	<g id="XMLID_2256_">
		<rect id="XMLID_2258_" x="808.178" y="97.176" style="fill:#BE202E;" width="170.886" height="6.369"/>
	</g>
	<g id="XMLID_2237_">
		<radialGradient id="XMLID_2_" cx="267.2226" cy="44.9798" r="42.4405" gradientUnits="userSpaceOnUse">
			<stop  offset="0.5744" style="stop-color:#151011"/>
			<stop  offset="0.7977" style="stop-color:#151011"/>
			<stop  offset="1" style="stop-color:#151011"/>
		</radialGradient>
		<path id="XMLID_2254_" style="fill:url(#XMLID_2_);" d="M307.913,11.991h-39.789v27.292h30.595l0.197,10.335H268.32v28.356h39.593
			v11.126h-81.381V0.858h81.381V11.991z"/>
		<radialGradient id="XMLID_3_" cx="40.6915" cy="44.5643" r="42.4411" gradientUnits="userSpaceOnUse">
			<stop  offset="0.5744" style="stop-color:#151011"/>
			<stop  offset="0.7977" style="stop-color:#151011"/>
			<stop  offset="1" style="stop-color:#151011"/>
		</radialGradient>
		<path id="XMLID_2252_" style="fill:url(#XMLID_3_);" d="M81.383,11.576H41.592v27.292h30.593l0.2,10.335H41.791v28.356h39.391
			v11.126H0V0.443h81.383V11.576z"/>
		<radialGradient id="XMLID_4_" cx="153.9762" cy="44.5642" r="42.8746" gradientUnits="userSpaceOnUse">
			<stop  offset="0.5744" style="stop-color:#151011"/>
			<stop  offset="0.7977" style="stop-color:#151011"/>
			<stop  offset="1" style="stop-color:#151011"/>
		</radialGradient>
		<path id="XMLID_2250_" style="fill:url(#XMLID_4_);" d="M154.176,0.257v76.91h41.193v11.705h-82.784V0.257H154.176z"/>
		<radialGradient id="XMLID_5_" cx="383.1075" cy="44.5643" r="44.2137" gradientUnits="userSpaceOnUse">
			<stop  offset="0.5744" style="stop-color:#151011"/>
			<stop  offset="0.7977" style="stop-color:#151011"/>
			<stop  offset="1" style="stop-color:#151011"/>
		</radialGradient>
		<path id="XMLID_2248_" style="fill:url(#XMLID_5_);" d="M426.996,0.028l-0.171,89.074h-24.725l0.115-69.013l-12.599,69.013
			h-21.899l-13.071-70.747l0.081,70.747h-15.507V0.028h35.207l8.596,49.351l9.068-49.351H426.996z"/>
		<radialGradient id="XMLID_6_" cx="499.1504" cy="44.5643" r="42.6568" gradientUnits="userSpaceOnUse">
			<stop  offset="0.5744" style="stop-color:#151011"/>
			<stop  offset="0.7977" style="stop-color:#151011"/>
			<stop  offset="1" style="stop-color:#151011"/>
		</radialGradient>
		<path id="XMLID_2246_" style="fill:url(#XMLID_6_);" d="M539.84,11.263h-39.789v27.553h30.593v10.431H500.25v28.622h39.394v11.232
			H458.46V0.028h81.38V11.263z"/>
		<radialGradient id="XMLID_7_" cx="611.9346" cy="44.7591" r="42.5002" gradientUnits="userSpaceOnUse">
			<stop  offset="0.5744" style="stop-color:#151011"/>
			<stop  offset="0.7977" style="stop-color:#151011"/>
			<stop  offset="1" style="stop-color:#151011"/>
		</radialGradient>
		<path id="XMLID_2244_" style="fill:url(#XMLID_7_);" d="M611.933,0.431l17.423,46.588V0.431h23.169v88.655H616.41l-22.694-56.843
			v56.843h-22.371V0.431H611.933z"/>
		<radialGradient id="XMLID_8_" cx="724.0911" cy="44.7589" r="42.3939" gradientUnits="userSpaceOnUse">
			<stop  offset="0.5744" style="stop-color:#151011"/>
			<stop  offset="0.7977" style="stop-color:#151011"/>
			<stop  offset="1" style="stop-color:#151011"/>
		</radialGradient>
		<path id="XMLID_2242_" style="fill:url(#XMLID_8_);" d="M764.481,11.627h-24.327v77.44h-32.128v-77.44
			c-4.588,0-19.125-0.132-24.324,0V0.451h80.779V11.627z"/>
		<radialGradient id="XMLID_9_" cx="842.89" cy="44.5082" r="39.9119" gradientUnits="userSpaceOnUse">
			<stop  offset="0.5744" style="stop-color:#151011"/>
			<stop  offset="0.7977" style="stop-color:#151011"/>
			<stop  offset="1" style="stop-color:#151011"/>
		</radialGradient>
		<path id="XMLID_2240_" style="fill:url(#XMLID_9_);" d="M877.602,10.56c-18.147,20.184-30.679,46.381-30.679,77.657v0.799h-29.96
			v-0.931c0-21.122,5.761-47.184,29.96-75.924l0.143-0.935l-38.889-0.135V0h69.424V10.56z"/>
		<radialGradient id="XMLID_10_" cx="944.184" cy="44.6449" r="39.8722" gradientUnits="userSpaceOnUse">
			<stop  offset="0.5744" style="stop-color:#151011"/>
			<stop  offset="0.7977" style="stop-color:#151011"/>
			<stop  offset="1" style="stop-color:#151011"/>
		</radialGradient>
		<path id="XMLID_2238_" style="fill:url(#XMLID_10_);" d="M909.305,12.847c0-5.343,3.255-8.341,10.839-10.164
			c6.367-1.433,15.305-2.344,24.516-2.344c10.43,0,20.044,1.037,25.599,2.731c5.826,1.826,8.805,5.343,8.805,10.559v0.648v25.157
			v1.301c0,6.904-2.034,8.602-23.159,17.854c-18.56,8.344-18.018,7.561-18.018,16.418v0.653l-0.133,1.958h40.225v11.333h-68.674
			v-1.169l0.541-14.988c0.542-15.899-0.674-19.548,14.222-25.934c5.555-2.344,16.256-6.908,21.134-9.381
			c4.74-2.348,5.958-3.655,5.958-7.951c0-16.681,0.135,0,0.135-16.681c0-2.737-2.028-3.91-5.283-3.91
			c-4.605,0-9.886-0.914-9.886,4.038v1.175v14.723h-26.821V13.758V12.847z"/>
	</g>
</g>
</svg>
