<?xml version="1.0" encoding="iso-8859-1"?>
<!-- Generator: Adobe Illustrator 17.1.0, SVG Export Plug-In . SVG Version: 6.00 Build 0)  -->
<!DOCTYPE svg PUBLIC "-//W3C//DTD SVG 1.1//EN" "http://www.w3.org/Graphics/SVG/1.1/DTD/svg11.dtd">
<svg version="1.1" id="Layer_1" xmlns="http://www.w3.org/2000/svg" xmlns:xlink="http://www.w3.org/1999/xlink" x="0px" y="0px"
	 viewBox="0 0 400.32 146.02" style="enable-background:new 0 0 400.32 146.02;" xml:space="preserve">
<g>
	<path d="M12.21,65.673l-0.165,0.091l-0.557,0.306c-5.423,2.823-9.16,8.195-10.312,15.069c-1.477,9.729-1.529,18.544-0.167,26.265
		c1.387,7.867,4.458,16.174,9.112,24.72c3.472,6.135,8.793,9.905,15.007,10.737c61.954,5.976,123.99,4.681,170.428-3.507
		l16.23-2.965c48.371-8.529,107.643-28.423,162.55-54.583c6.094-3.155,9.785-8.458,10.924-15.423
		c1.402-8.903,1.365-16.939-0.116-26.073l-0.142-0.952c-1.767-9.141-4.472-16.698-8.774-24.579
		c-3.475-6.106-8.766-9.908-14.981-10.743c-61.055-5.855-123.679-4.284-172.091,4.253c0.04-0.007-16.186,2.743-16.186,2.743
		C126.584,19.211,67.999,39.12,12.21,65.673"/>
	<path style="fill:#FFD100;" d="M103.641,68.089c1.05-0.721,1.984-1.44,2.308-2.004c0.31-0.548,0.322-1.372,0.188-2.132
		l-0.471-2.849c-0.636-3.605-1.752-4.664-4.829-3.468c-1.05,0.441-3.762,1.833-6.895,3.829c-6.938,4.34-32.683,20.037-47.038,28.729
		c-1.218,0.683-2.101,1.244-2.629,2.481c-1.055,2.484-0.379,6.321-0.191,7.386c0.226,1.283,1.468,5.708,2.979,6.77
		c1.149,0.655,1.851,0.738,2.947,0.984c16.466,3.258,46.033,9.199,54.033,10.939c3.621,0.775,6.649,1.177,7.78,1.193
		c3.304,0.09,3.987-1.307,3.355-4.893l-0.53-2.832c-0.137-0.774-0.428-1.535-0.908-1.951c-0.496-0.409-1.62-0.767-2.852-1.079
		c-9.202-2.078-46.393-9.2-56.14-11.169l-0.025-0.142C63.204,92.671,95.701,73.17,103.641,68.089"/>
	<path style="fill:#FFD100;" d="M178.902,42.182c-0.09-0.509-0.391-2.334-0.48-2.84c-0.527-2.986-2.436-4.275-5.031-3.559
		c-6.539,1.424-11.564,2.606-19.004,4.912c-7.351,2.273-11.202,3.869-18.25,6.432c-1.297,0.499-4.089,1.589-5.572,2.377
		c-4.057,2.058-6.093,3.115-8.485,4.854c-2.214,1.619-4.554,3.446-5.778,5.538c-2.805,4.691-2.985,7.302-2.042,12.655l5.101,28.931
		c0.948,5.378,2.007,7.747,6.248,11.201c1.865,1.542,4.689,2.455,7.321,3.211c2.846,0.834,5.118,1.115,9.638,1.686
		c1.66,0.208,4.661,0.31,6.046,0.308c7.5,0,11.667,0.196,19.354-0.172c7.776-0.402,12.904-1.004,19.536-1.897
		c2.68-0.236,4.039-2.064,3.507-5.082c-0.091-0.517-0.429-2.317-0.518-2.818c-0.513-2.907-1.994-3.938-4.656-3.662
		c-7.046,0.731-12.782,1.758-19.598,2.249c-6.71,0.491-11.85,0.891-19.914,1.317c-4.024,0.225-7.678-0.266-10.586-1.325
		c-2.928-1.039-4.66-3.396-5.022-5.45l-5.637-31.972c-0.364-2.062,0.46-4.85,2.853-6.85c2.372-1.98,5.639-3.68,9.497-4.85
		c7.725-2.35,12.689-3.747,19.162-5.584c6.577-1.846,12.319-2.841,19.186-4.583C178.373,46.552,179.414,45.087,178.902,42.182"/>
	<path style="fill:#FFD100;" d="M167.293,84.374c2.659-0.469,3.435-2.187,3.155-5.308l-0.633-3.589
		c-0.801-3.011-2.12-4.375-4.78-3.906c-4.328,0.974-28.36,5.992-29.915,6.383c-2.823,0.683-2.901,1.22-3.034,2.103
		c-0.097,0.679,0.104,2.21,0.421,4.009c0.336,1.904,0.641,3.411,1.003,4.066c0.426,0.783,1.358,0.85,3.51,0.603
		C138.678,88.554,162.893,84.944,167.293,84.374"/>
	<path style="fill:#FFD100;" d="M39.983,84.235c0.005-0.05,0.02-0.076,0.02-0.076c0.446-2.476-0.636-3.607-3.788-3.051l-3.412,0.602
		c-3.158,0.557-5.242,1.992-5.921,4.763c-1.328,5.777-1.318,11.321-0.424,16.396c0.907,5.142,2.792,10.345,6.015,15.312
		c1.583,2.357,4.03,2.979,7.188,2.422l3.412-0.602c3.153-0.556,3.784-1.982,2.521-4.134C38.626,105.287,37.503,94.89,39.983,84.235"
		/>
	<path style="fill:#FFD100;" d="M339.871,61.95c1.045,0.477,3.158,1.337,3.54-0.265c0.292-1.658,0.22-2.884,0.165-4.849
		c-0.053-1.962-0.177-5.155-0.65-6.164c-0.278-0.754-1.301-1.163-2.063-1.396c-8.298-2.93-16.124-5.503-24.889-8.335
		c-10.985-3.557-34.447-11.452-35.017-11.609c-2.287-0.658-3.973-0.876-5.553-0.583c-0.526,0.093-0.797,0.141-1.323,0.263
		c-0.382,0.087-1.146,0.317-1.749,0.841c-0.732,0.626-1.162,1.113-1.454,1.835c-0.27,0.699-0.416,1.364-0.279,2.144l0.365,2.071
		c1.445,8.193,3.295,16.28,4.74,24.477c1.398,7.928,2.431,16.195,3.875,24.38c0.407,2.31,1.677,3.407,4.289,2.926
		c1.071-0.197,2.129-0.383,3.196-0.572c2.622-0.488,3.993-2.048,3.845-4.411c-0.69-7.008-1.644-13.941-2.547-20.661
		c-1.217-6.901-2.388-13.543-3.88-20.407c10.745,3.583,21.429,7.204,32.185,11.065C323.711,55.152,333.011,59.066,339.871,61.95"/>
	<path style="fill:#FFD100;" d="M374.049,64.182c-0.871,4.523-1.866,5.3-6.896,8.02c-54.475,26.35-109.141,44.467-157.135,52.93
		c-0.016,0.003-16.418,3.011-16.418,3.011c-45.941,8.101-100.321,9.612-161.83,3.661c-5.618-0.617-8.603-0.781-11.348-4.925
		c-3.637-7.669-6.661-14.689-7.835-21.348c-1.147-6.506-1.432-14.146,0.119-22.553c0.776-4.222,3.167-6.317,5.481-7.352
		c56.223-26.512,110.937-44.969,156.799-53.056l16.484-2.793c47.968-8.458,105.88-10.203,166.419-4.05
		c4.172,0.183,6.644,1.131,8.352,3.911c4.065,6.581,5.963,13.373,7.48,21.248l0.147,0.759
		C375.118,49.551,375.599,56.247,374.049,64.182 M370.968,17.665c-2.467-4.352-6.151-7.038-10.389-7.613
		c-60.338-5.762-122.322-4.232-170.196,4.21l-16.222,2.761C128.324,25.105,70.324,44.845,15.023,71.167l-0.065,0.018l-0.355,0.21
		c-3.847,1.986-6.35,5.696-7.182,10.676C6.06,91.078,5.992,99.172,7.24,106.252c1.269,7.197,4.12,14.889,8.46,22.845
		c2.461,4.331,6.128,7.005,10.381,7.557c61.264,5.911,122.655,4.648,168.566-3.448c0.023-0.004,16.172-2.953,16.172-2.953
		c47.918-8.449,106.614-28.166,161.011-54.092c4.147-2.152,6.69-5.88,7.515-10.87c1.281-8.213,1.246-15.646-0.114-24.097
		l-0.15-0.849C377.468,31.932,374.961,24.952,370.968,17.665"/>
	<path style="fill:#FFD100;" d="M254.153,31.149c-6.963-0.889-14.26-1.225-21.116-1.311c-6.812-0.119-11.305-0.041-18.1,0.11
		c-1.356-0.036-5.293,0.056-6.882,0.337c-2.9,0.511-5.482,1.226-7.722,2.409c-2.245,1.175-4.146,2.851-5.712,4.726
		c-3.107,3.963-4.432,8.949-3.398,14.816l7.408,42.014c1.037,5.882,3.989,10.119,8.267,12.799c2.108,1.199,4.468,2.122,6.979,2.454
		c2.511,0.348,5.184,0.153,8.084-0.359c1.589-0.28,5.318-1.55,6.581-2.042c6.436-2.189,10.685-3.651,17.042-6.106
		c6.411-2.437,13.152-5.251,19.394-8.453c2.489-1.24,2.544-3.066,2.14-5.359l-0.226-1.281c-0.451-2.558-1.683-3.393-4.219-2.401
		c-6.118,2.392-22.222,8.048-37.759,12.599c-3.886,1.158-7.346,1.53-10.24,0.842c-2.877-0.738-4.39-2.14-4.976-4.921
		c-0.911-4.331-6.65-37.258-7.296-41.654c-0.41-2.795,0.545-4.647,2.998-6.313c2.488-1.647,5.877-2.477,9.88-2.739
		c16.165-1.017,33.232-1.037,39.798-0.886c2.723,0.067,3.595-1.14,3.146-3.689l-0.225-1.278
		C257.594,33.168,256.918,31.472,254.153,31.149"/>
	<path style="fill:#FFD100;" d="M348.831,26.035l-3.419,0.603c-2.627,0.463-3.492,1.97-2.28,4.118
		c2.211,3.698,3.668,8.168,4.612,12.835c0.311,1.382,0.549,2.733,0.732,4.272c0.8,5.764,0.92,11.531,0.8,16.245
		c-0.114,0.596-0.079,1.177,0.294,1.62c0.933,0.629,1.487,0.547,2.71,0.349c2.677-0.438,4.783-0.928,6.233-1.975
		c1.683-1.357,2.435-3.51,2.743-6.205c0.466-5.085,0.641-8.589-0.449-14.774c-1.048-5.946-3.055-9.924-5.498-14.514
		C354.035,26.169,351.748,25.521,348.831,26.035"/>
	<path style="fill:#FFD100;" d="M245.608,69.764c2.651-0.468,3.425-2.18,3.243-5.011l-0.342-1.937
		c-0.8-2.735-2.112-4.083-4.764-3.615c-4.143,0.731-20.339,3.023-30.662,4.459c0,0-1.979,0.175-2.161,1.755
		c-0.184,1.242,0.246,3.686,0.522,5.247c0.236,1.339,0.633,3.224,1.446,4.627c0.704,1.189,2.342,0.85,2.342,0.85
		C225.413,73.914,241.465,70.495,245.608,69.764"/>
	<path d="M394.508,73.171c0.225-0.04,0.443-0.08,0.64-0.134c0.198-0.05,0.369-0.122,0.513-0.219
		c0.147-0.098,0.255-0.224,0.324-0.387c0.066-0.156,0.078-0.363,0.032-0.621c-0.038-0.215-0.111-0.381-0.214-0.492
		c-0.108-0.115-0.231-0.194-0.379-0.241c-0.147-0.044-0.305-0.065-0.481-0.06c-0.18,0.006-0.351,0.026-0.517,0.055l-1.328,0.234
		l0.361,2.05L394.508,73.171z M394.448,70.237c0.765-0.135,1.358-0.085,1.783,0.156c0.417,0.242,0.686,0.669,0.795,1.286
		c0.102,0.577,0.016,1.031-0.262,1.359c-0.272,0.328-0.646,0.556-1.119,0.688l2.348,2.527l-1.083,0.191l-2.244-2.468l-1.062,0.187
		l0.49,2.778l-0.995,0.175l-1.136-6.441L394.448,70.237z M390.802,76.115c0.332,0.534,0.738,0.975,1.224,1.327
		c0.48,0.347,1.02,0.596,1.613,0.736c0.602,0.145,1.227,0.159,1.874,0.044c0.641-0.113,1.212-0.338,1.717-0.678
		c0.51-0.335,0.932-0.753,1.264-1.243c0.334-0.496,0.562-1.05,0.694-1.665c0.131-0.617,0.136-1.264,0.016-1.944
		c-0.116-0.657-0.339-1.25-0.673-1.783c-0.334-0.527-0.736-0.966-1.219-1.312c-0.479-0.344-1.018-0.59-1.613-0.734
		c-0.591-0.144-1.203-0.16-1.845-0.047c-0.647,0.114-1.23,0.341-1.746,0.68c-0.508,0.339-0.932,0.754-1.265,1.241
		c-0.337,0.491-0.568,1.041-0.699,1.65c-0.127,0.614-0.137,1.249-0.021,1.906C390.244,74.973,390.472,75.579,390.802,76.115
		 M389.186,72.227c0.175-0.721,0.474-1.371,0.893-1.953c0.418-0.578,0.938-1.068,1.561-1.464c0.622-0.399,1.311-0.666,2.071-0.8
		c0.754-0.133,1.492-0.118,2.209,0.045c0.718,0.16,1.37,0.443,1.955,0.844c0.588,0.405,1.086,0.914,1.503,1.531
		c0.411,0.617,0.686,1.308,0.823,2.087c0.139,0.79,0.121,1.552-0.054,2.275c-0.18,0.725-0.472,1.381-0.887,1.963
		c-0.41,0.587-0.927,1.071-1.548,1.464c-0.619,0.394-1.309,0.655-2.063,0.788c-0.76,0.134-1.498,0.124-2.218-0.033
		c-0.721-0.157-1.376-0.434-1.968-0.844c-0.593-0.404-1.097-0.92-1.509-1.541c-0.415-0.619-0.69-1.33-0.829-2.12
		C388.989,73.69,389.008,72.947,389.186,72.227"/>
</g>
</svg>
