<?xml version="1.0" encoding="iso-8859-1"?>
<!-- Generator: Adobe Illustrator 17.1.0, SVG Export Plug-In . SVG Version: 6.00 Build 0)  -->
<!DOCTYPE svg PUBLIC "-//W3C//DTD SVG 1.1//EN" "http://www.w3.org/Graphics/SVG/1.1/DTD/svg11.dtd">
<svg version="1.1" id="Layer_1" xmlns="http://www.w3.org/2000/svg" xmlns:xlink="http://www.w3.org/1999/xlink" x="0px" y="0px"
	 viewBox="0 0 130.09 86.04" style="enable-background:new 0 0 130.09 86.04;" xml:space="preserve">
<g>
	<path style="fill:#FF5000;" d="M0.637,61.673L44.892-0.002l85.836,61.662L0.637,61.673z M45.396,3.479L5.658,59.173l117.477-0.013
		L45.396,3.479z"/>
	<polygon style="fill:#FF5000;" points="99.304,48.983 44.769,38.265 20.638,49.078 17.836,53.017 104.932,53.017 	"/>
	<polygon style="fill:#FF5000;" points="89.669,42.101 69.238,27.453 53.217,34.537 	"/>
	<polygon style="fill:#FF5000;" points="47.315,11.751 27.059,40.14 64.074,23.752 	"/>
	<rect x="63.664" y="68" style="fill:#FF5000;" width="7.439" height="18.041"/>
	<rect x="73.253" y="82.124" style="fill:#FF5000;" width="11.145" height="3.918"/>
	<rect x="32.97" y="68" style="fill:#FF5000;" width="7.436" height="18.041"/>
	<rect x="42.557" y="82.124" style="fill:#FF5000;" width="15.057" height="3.918"/>
	<rect x="42.557" y="68.071" style="fill:#FF5000;" width="15.057" height="3.913"/>
	<rect x="42.557" y="75.097" style="fill:#FF5000;" width="15.057" height="3.919"/>
	<polygon style="fill:#FF5000;" points="17.624,76.206 28.847,68 19.581,68 12.991,72.925 	"/>
	<polygon style="fill:#FF5000;" points="28.66,86.042 11.385,73.803 8.361,75.944 8.361,68 0.925,68 0.925,86.042 8.361,86.042 
		8.361,78.229 19.395,86.042 	"/>
	<rect x="88.494" y="74.089" style="fill:#FF5000;" width="7.44" height="11.953"/>
	<polygon style="fill:#FF5000;" points="112.303,72.049 106.953,68.071 80.744,68.071 80.744,71.983 103.116,71.983 107.671,75.329 
			"/>
	<polygon style="fill:#FF5000;" points="121.33,68 109.24,76.564 109.24,80.53 109.24,86.042 116.677,86.042 116.677,77.858 
		130.597,68 	"/>
	<g>
		<path style="fill:#FF5000;" d="M120.546,83.827v1.863h-0.515v-1.863h-0.654v-0.446h1.824v0.446H120.546z"/>
		<path style="fill:#FF5000;" d="M123.644,84.237l-0.624,1.261h-0.307l-0.621-1.261v1.453h-0.515v-2.309h0.698l0.594,1.269
			l0.598-1.269h0.694v2.309h-0.515V84.237z"/>
	</g>
</g>
</svg>
