<?xml version="1.0" standalone="no"?>
<!DOCTYPE svg PUBLIC "-//W3C//DTD SVG 1.1//EN" "http://www.w3.org/Graphics/SVG/1.1/DTD/svg11.dtd" >
<svg xmlns="http://www.w3.org/2000/svg" xmlns:xlink="http://www.w3.org/1999/xlink" version="1.1">
<metadata>
Created by FontForge 20170910 at Mon Jun 14 16:18:12 2004
 By jimmywarting
</metadata>
<defs>
<font id="PSLxImperial-Bold" horiz-adv-x="0" >
  <font-face 
    font-family="PSLxImperial"
    font-weight="700"
    font-stretch="normal"
    units-per-em="1000"
    panose-1="2 0 0 0 0 0 0 0 0 0"
    ascent="800"
    descent="-200"
    x-height="344"
    cap-height="461"
    bbox="-306 -300 720 777"
    underline-thickness="50"
    underline-position="-100"
    unicode-range="U+0020-FB02"
  />
<missing-glyph horiz-adv-x="500" 
d="M63 777h375v-777h-375v777zM375 63v652h-250v-652h250z" />
    <glyph glyph-name="uni0E4F.liga" unicode="&#xe4f;&#x22;" 
 />
    <glyph glyph-name="uni0E24.liga" unicode="&#xe24;&#xe32;" horiz-adv-x="557" 
d="M205 -130v378q0 72 -64 72h-16v-240h40v-80h-140v400h134q71 0 110 -36q36 -34 36 -94v-400h-100zM435 -130v355q0 51 -20 73t-69 22h-41v80h84q146 0 146 -154v-376h-100z" />
    <glyph glyph-name="uni0E26.liga" unicode="&#xe26;&#xe32;" horiz-adv-x="569" 
d="M215 -130v378q0 72 -64 72h-16v-320h-140v80h40v320h134q71 0 110 -36q36 -34 36 -94v-400h-100zM446 -130v355q0 51 -20 73t-69 22h-41v80h84q146 0 146 -154v-376h-100z" />
    <glyph glyph-name="fi" unicode="fi" 
 />
    <glyph glyph-name="fl" unicode="fl" 
 />
    <glyph glyph-name=".notdef" horiz-adv-x="500" 
d="M63 777h375v-777h-375v777zM375 63v652h-250v-652h250z" />
    <glyph glyph-name=".null" 
 />
    <glyph glyph-name="Praifa" horiz-adv-x="312" 
 />
    <glyph glyph-name="space" unicode=" " horiz-adv-x="256" 
 />
    <glyph glyph-name="space" unicode="&#xa0;" horiz-adv-x="256" 
 />
    <glyph glyph-name="lefttorightmark" unicode="&#x200e;" horiz-adv-x="335" 
 />
    <glyph glyph-name="righttoleftmark" unicode="&#x200f;" horiz-adv-x="348" 
 />
    <glyph glyph-name="zerowidthnonjoiner" unicode="&#x200c;" horiz-adv-x="150" 
 />
    <glyph glyph-name="zerowidthjoiner" unicode="&#x200d;" horiz-adv-x="211" 
 />
    <glyph glyph-name="uni0E00" unicode="&#xe00;" 
 />
    <glyph glyph-name="uni0E01" unicode="&#xe01;" horiz-adv-x="330" 
d="M205 0v248q0 72 -64 72h-16v-320h-100v400h134q71 0 110 -36q36 -34 36 -94v-270h-100z" />
    <glyph glyph-name="uni0E02" unicode="&#xe02;" horiz-adv-x="330" 
d="M305 130q0 -58 -36 -93q-38 -37 -110 -37h-134v227q0 19 25 41t25 42v10h-50v80h150v-80q0 -36 -25 -62t-25 -45v-133h16q64 0 64 62v258h100v-270v0z" />
    <glyph glyph-name="uni0E03" unicode="&#xe03;" horiz-adv-x="330" 
d="M305 130q0 -58 -36 -93q-38 -37 -110 -37h-134v227q0 19 25 41t25 42h-60v90h40l30 -30l30 30h60v-80q0 -36 -25 -62t-25 -45v-133h16q64 0 64 62v258h100v-270v0z" />
    <glyph glyph-name="uni0E04" unicode="&#xe04;" horiz-adv-x="330" 
d="M205 0v282q0 39 -40 39t-40 -39v-42h50v-100h-50v-140h-100v286q0 55 42 89q38 31 98 31q59 0 99 -31q41 -35 41 -89v-286h-100z" />
    <glyph glyph-name="uni0E05" unicode="&#xe05;" horiz-adv-x="330" 
d="M205 0v292q0 15 -9 24l-31 -25l-31 25q-9 -9 -9 -24v-52h50v-100h-50v-140h-100v291q0 47 29 79q29 29 71 36l40 -35l40 35q42 -7 71 -36q29 -32 29 -79v-291h-100z" />
    <glyph glyph-name="uni0E06" unicode="&#xe06;" horiz-adv-x="330" 
d="M305 113q0 -118 -95 -118q-50 0 -85 45v-40h-100v227q0 19 25 41t25 42h-60v90h40l30 -30l30 30h60v-80q0 -36 -25 -62t-25 -45v-108q0 -12 12.5 -21t27.5 -9q40 0 40 42v283h100v-287v0z" />
    <glyph glyph-name="uni0E07" unicode="&#xe07;" horiz-adv-x="320" 
d="M300 205q0 -205 -141 -205h-129l-15 250h105l10 -170q26 0 44 26q23 32 23 90q0 64 -20 92q-23 32 -82 32h-21v80h71q155 0 155 -195z" />
    <glyph glyph-name="uni0E08" unicode="&#xe08;" horiz-adv-x="325" 
d="M305 205q0 -205 -141 -205h-119v170h-30v80h130v-170q57 -4 57 116q0 64 -20 92q-23 32 -82 32h-85v80h135q155 0 155 -195z" />
    <glyph glyph-name="uni0E09" unicode="&#xe09;" horiz-adv-x="335" 
d="M210 0v40q-34 -45 -85 -45q-95 0 -95 108v67h-25v80h125v-133q0 -42 40 -42q15 0 27.5 9t12.5 21v133q0 82 -94 82h-86v80h124q75 0 115.5 -40.5t40.5 -109.5v-250h-100z" />
    <glyph glyph-name="uni0E0A" unicode="&#xe0a;" horiz-adv-x="320" 
d="M305 172q4 -172 -136 -172h-144v242q0 16 15 38q15 24 15 37v3h-45v80h135v-70q0 -22 -10 -44.5t-10 -42.5v-163h13q37 0 52 19.5t15 72.5q0 30 -13.5 51t-36.5 21v76q54 0 51 61l-1 19h100v-23q0 -80 -67 -96q65 -20 67 -109z" />
    <glyph glyph-name="uni0E0B" unicode="&#xe0b;" horiz-adv-x="325" 
d="M310 172q4 -172 -136 -172h-144v232q0 14 15 36q15 23 15 38v4h-50v90h38l30 -30l30 30h42v-70q0 -24 -10 -45.5t-10 -41.5v-163h13q37 0 52 19.5t15 72.5q0 30 -13.5 51t-36.5 21v76q54 0 51 61l-1 19h100v-23q0 -80 -67 -96q65 -20 67 -109z" />
    <glyph glyph-name="uni0E0C" unicode="&#xe0c;" horiz-adv-x="510" 
d="M485 113q0 -118 -95 -118q-50 0 -85 45v-40h-100v248q0 72 -64 72h-16v-240h40v-80h-140v400h134q71 0 110 -36q36 -34 36 -94v-165q0 -12 12.5 -21t27.5 -9q40 0 40 42v283h100v-287v0z" />
    <glyph glyph-name="uni0E0D" unicode="&#xe0d;" horiz-adv-x="510" 
d="M485 95q0 -90 -36 -131q-39 -44 -129 -44h-115v80h85q95 0 95 60q-25 -24 -70 -24q-110 0 -110 120v92q0 72 -64 72h-16v-240h40v-80h-140v400h134q71 0 110 -36q36 -34 36 -94v-115q0 -39 40 -39t40 39v245h100v-305v0z" />
    <glyph glyph-name="uni0E0E" unicode="&#xe0e;" horiz-adv-x="340" 
d="M237 -120q-43 0 -72 30q-25 -30 -68 -30h-62v70h80q32 0 50 30q18 -30 50 -30v298q0 72 -64 72h-16v-320h-140v80h40v320h134q71 0 110 -36q36 -34 36 -94v-390h-78z" />
    <glyph glyph-name="uni0E0F" unicode="&#xe0f;" horiz-adv-x="340" 
d="M237 -140q-43 0 -72 30q-25 -30 -68 -30h-72v100h90v-30q31 -1 50 30q18 -30 50 -30v318q0 72 -64 72h-16v-320h-140v80h40v320h134q71 0 110 -36q36 -34 36 -94v-410h-78z" />
    <glyph glyph-name="uni0E10" unicode="&#xe10;" horiz-adv-x="320" 
d="M305 205q0 -205 -141 -205h-119v170h-30v80h130v-170q57 -4 57 116q0 64 -20 92q-23 32 -82 32h-85v80h135q5 0 11.5 -0.5t15.5 -1.5q11 13 10 32h113q-7 -43 -54 -61q59 -50 59 -164zM217 -130q-43 0 -72 30q-25 -30 -68 -30h-62v70h80q32 0 50 30q18 -30 50 -30v40h100
v-110h-78z" />
    <glyph glyph-name="uni0E11" unicode="&#xe11;" horiz-adv-x="335" 
d="M210 0v283q0 42 -26 42q-19 0 -37 -29q-17 -29 -17 -61v-235h-100v255q0 11 15 27q15 17 15 28h-50v90h38l30 -30l30 30h42v-40q26 45 70 45q90 0 90 -118v-287h-100z" />
    <glyph glyph-name="uni0E12" unicode="&#xe12;" horiz-adv-x="495" 
d="M470 113q0 -118 -95 -118q-50 0 -85 45v-40h-100v310l-26 -30l-31 30q-25 -22 -25 -118q0 -112 38 -112h14v-80h-44q-63 0 -90 58q-21 47 -21 142q0 90 28 143q32 62 97 62h3l31 -31l26 26h100v-295q0 -12 12.5 -21t27.5 -9q40 0 40 42v283h100v-287v0z" />
    <glyph glyph-name="uni0E13" unicode="&#xe13;" horiz-adv-x="510" 
d="M385 0v40q-34 -45 -85 -45q-95 0 -95 118v135q0 72 -64 72h-16v-240h40v-80h-140v400h134q71 0 110 -36q36 -34 36 -94v-153q0 -42 40 -42q15 0 27.5 9t12.5 21v295h100v-400h-100z" />
    <glyph glyph-name="uni0E14" unicode="&#xe14;" horiz-adv-x="315" 
d="M190 0v320h-17q-64 0 -65 -124q-2 -116 38 -116h14v-80h-44q-64 0 -90 54q-21 45 -21 142q0 93 34 146q38 62 115 60l136 -2v-400h-100z" />
    <glyph glyph-name="uni0E15" unicode="&#xe15;" horiz-adv-x="315" 
d="M190 0v310l-26 -30l-31 30q-25 -22 -25 -118q0 -112 38 -112h14v-80h-44q-63 0 -90 58q-21 47 -21 142q0 90 28 143q32 62 97 62h3l31 -31l26 26h100v-400h-100z" />
    <glyph glyph-name="uni0E16" unicode="&#xe16;" horiz-adv-x="330" 
d="M205 0v248q0 72 -64 72h-16v-240h40v-80h-140v400h134q71 0 110 -36q36 -34 36 -94v-270h-100z" />
    <glyph glyph-name="uni0E17" unicode="&#xe17;" horiz-adv-x="330" 
d="M205 0v283q0 42 -40 42q-15 0 -27.5 -9t-12.5 -21v-295h-100v400h100v-40q35 45 85 45q95 0 95 -118v-287h-100z" />
    <glyph glyph-name="uni0E18" unicode="&#xe18;" horiz-adv-x="295" 
d="M285 130q0 -60 -32 -95t-81 -35h-157v204h100v-124q23 -2 40.5 12.5t17.5 39.5q0 56 -82 90q-78 33 -81 87q-2 39 29.5 65t85.5 26h140v-80h-103q-37 0 -37 -8q0 -7 28 -23q14 -8 28 -15t28 -15q76 -43 76 -129z" />
    <glyph glyph-name="uni0E19" unicode="&#xe19;" horiz-adv-x="330" 
d="M205 0v40q-34 -45 -85 -45q-95 0 -95 118v287h100v-283q0 -42 40 -42q15 0 27.5 9t12.5 21v295h100v-400h-100z" />
    <glyph glyph-name="uni0E1A" unicode="&#xe1a;" horiz-adv-x="330" 
d="M305 114q0 -27 -11 -49.5t-29.5 -38t-44 -24t-55.5 -8.5q-58 0 -98 32q-42 33 -42 88v286h100v-282q0 -39 40 -39t40 39v282h100v-286v0z" />
    <glyph glyph-name="uni0E1B" unicode="&#xe1b;" horiz-adv-x="330" 
d="M305 114q0 -27 -11 -49.5t-29.5 -38t-44 -24t-55.5 -8.5q-58 0 -98 32q-42 33 -42 88v286h100v-282q0 -39 40 -39t40 39v362h100v-366v0z" />
    <glyph glyph-name="uni0E1C" unicode="&#xe1c;" horiz-adv-x="430" 
d="M405 104q0 -51 -31 -78.5t-88 -27.5q-8 0 -15.5 0.5t-15.5 1.5l-40 30l-40 -30q-8 -1 -15.5 -1.5t-15.5 -0.5q-57 0 -88 27.5t-31 78.5v214q0 38 21 61t63 22l36 -1v-80q-20 0 -20 -18v-189q0 -33 28 -33h12v320h100v-320h13q27 0 27 33v287h100v-296v0z" />
    <glyph glyph-name="uni0E1D" unicode="&#xe1d;" horiz-adv-x="430" 
d="M405 104q0 -51 -31 -78.5t-88 -27.5q-8 0 -15.5 0.5t-15.5 1.5l-40 30l-40 -30q-8 -1 -15.5 -1.5t-15.5 -0.5q-57 0 -88 27.5t-31 78.5v214q0 38 21 61t63 22l36 -1v-80q-20 0 -20 -18v-179q0 -43 38 -43h2v320h100v-320h2q38 0 38 43v357h100v-376v0z" />
    <glyph glyph-name="uni0E1E" unicode="&#xe1e;" horiz-adv-x="430" 
d="M405 104q0 -51 -31 -78.5t-88 -27.5q-8 0 -15.5 0.5t-15.5 1.5l-40 30l-40 -30q-8 -1 -15.5 -1.5t-15.5 -0.5q-57 0 -88 27.5t-31 78.5v296h100v-277q0 -43 38 -43h2v320h100v-320h2q38 0 38 43v277h100v-296v0z" />
    <glyph glyph-name="uni0E1F" unicode="&#xe1f;" horiz-adv-x="430" 
d="M405 104q0 -51 -31 -78.5t-88 -27.5q-8 0 -15.5 0.5t-15.5 1.5l-40 30l-40 -30q-8 -1 -15.5 -1.5t-15.5 -0.5q-57 0 -88 27.5t-31 78.5v296h100v-277q0 -43 38 -43h2v320h100v-320h2q38 0 38 43v357h100v-376v0z" />
    <glyph glyph-name="uni0E20" unicode="&#xe20;" horiz-adv-x="340" 
d="M215 0v248q0 72 -64 72h-16v-320h-140v80h40v320h134q71 0 110 -36q36 -34 36 -94v-270h-100z" />
    <glyph glyph-name="uni0E21" unicode="&#xe21;" horiz-adv-x="330" 
d="M305 113q0 -118 -95 -118q-50 0 -85 45v-40h-100v400h100v-295q0 -12 12.5 -21t27.5 -9q40 0 40 42v283h100v-287v0z" />
    <glyph glyph-name="uni0E22" unicode="&#xe22;" horiz-adv-x="330" 
d="M142 -2q-58 -1 -92.5 32t-34.5 84q0 37 26 69q21 24 44 32q-24 6 -44 26q-25 25 -25 61q0 42 28.5 70t71.5 28h44v-80l-4 1q-3 1 -9 1q-29 0 -29 -30q0 -36 51 -35l36 1v142h100v-400zM205 173l-32 1q-22 1 -39 -13t-17 -36q0 -48 59 -46l29 1v93z" />
    <glyph glyph-name="uni0E23" unicode="&#xe23;" horiz-adv-x="290" 
d="M280 106q0 -51 -30 -78.5t-81 -27.5h-149v80h91q57 0 59 20q4 29 -79 87q-80 56 -81 109q-1 45 30.5 74.5t91.5 29.5h138v-80h-99q-49 0 -51 -15q-1 -13 39 -45q62 -46 78 -64q43 -43 43 -90z" />
    <glyph glyph-name="uni0E24" unicode="&#xe24;" horiz-adv-x="330" 
d="M205 -130v378q0 72 -64 72h-16v-240h40v-80h-140v400h134q71 0 110 -36q36 -34 36 -94v-400h-100z" />
    <glyph glyph-name="uni0E25" unicode="&#xe25;" horiz-adv-x="330" 
d="M205 0v176l-22 1q-28 1 -47 -12q-23 -15 -23 -44q0 -19 12.5 -32t32.5 -10l7 1v-80l-44 -1q-111 -3 -111 125q0 73 51 107q41 28 110 26l34 -1v10q0 54 -94 54h-76v80h114q75 0 115.5 -37t40.5 -103v-260h-100z" />
    <glyph glyph-name="uni0E26" unicode="&#xe26;" horiz-adv-x="340" 
d="M215 -130v378q0 72 -64 72h-16v-320h-140v80h40v320h134q71 0 110 -36q36 -34 36 -94v-400h-100z" />
    <glyph glyph-name="uni0E27" unicode="&#xe27;" horiz-adv-x="290" 
d="M275 205q0 -205 -149 -205h-111v80h69q88 0 88 116q0 124 -102 124h-55v80h105q76 0 118 -58q37 -52 37 -137z" />
    <glyph glyph-name="uni0E28" unicode="&#xe28;" horiz-adv-x="340" 
d="M320 430q-6 -34 -45 -57q40 -31 40 -90v-283h-100v282q0 39 -46 39q-18 0 -31 -11t-13 -28v-42h60v-100h-60v-140h-100v286q0 55 42 89q38 31 98 31q10 0 19 -0.5t17 -1.5q8 12 6 26h113v0z" />
    <glyph glyph-name="uni0E29" unicode="&#xe29;" horiz-adv-x="330" 
d="M305 180v-66q0 -27 -11 -49.5t-29.5 -38t-44 -24t-55.5 -8.5q-58 0 -98 32q-42 33 -42 88v286h100v-282q0 -39 40 -39t40 39v62h-50v100h50v120h100v-150h30v-70h-30z" />
    <glyph glyph-name="uni0E2A" unicode="&#xe2a;" horiz-adv-x="330" 
d="M310 430q-6 -38 -53 -61q48 -36 48 -102v-267h-100v176l-22 1q-28 1 -47 -12q-23 -15 -23 -44q0 -19 12.5 -32t32.5 -10l7 1v-80l-44 -1q-111 -3 -111 125q0 73 51 107q41 28 110 26l34 -1v10q0 54 -84 54h-86v80h114q21 0 37 -3q12 12 11 33h113v0z" />
    <glyph glyph-name="uni0E2B" unicode="&#xe2b;" horiz-adv-x="330" 
d="M157 320v80h148v-80h-148zM205 0v198q0 42 -40 42q-15 0 -27.5 -9t-12.5 -21v-210h-100v400h100v-125q35 45 85 45q95 0 95 -118v-202h-100z" />
    <glyph glyph-name="uni0E2C" unicode="&#xe2c;" horiz-adv-x="430" 
d="M405 104q0 -51 -31 -78.5t-88 -27.5q-8 0 -15.5 0.5t-15.5 1.5l-40 30l-40 -30q-8 -1 -15.5 -1.5t-15.5 -0.5q-57 0 -88 27.5t-31 78.5v296h100v-287q0 -33 28 -33h12v204h100v-204h13q27 0 27 33v137q0 74 -60 74h-80v76h80q60 0 60 35v9h100v-19q0 -24 -18.5 -43.5
t-48.5 -20.5q67 -19 67 -104v-153v0z" />
    <glyph glyph-name="uni0E2D" unicode="&#xe2d;" horiz-adv-x="330" 
d="M315 205q0 -205 -139 -205h-151v250h150v-80h-50v-90h20q67 0 67 116q0 62 -20 91q-22 33 -82 33h-85v80h129q161 0 161 -195z" />
    <glyph glyph-name="uni0E2E" unicode="&#xe2e;" horiz-adv-x="330" 
d="M315 205q0 -205 -139 -205h-151v250h150v-80h-50v-90h20q67 0 67 116q0 62 -20 91q-22 33 -82 33h-85v80h129q7 0 15 -0.5t18 -1.5q11 13 10 32h113q-6 -39 -53 -62q58 -46 58 -163z" />
    <glyph glyph-name="uni0E2F" unicode="&#xe2f;" horiz-adv-x="320" 
d="M195 0v236q-26 -35 -85 -35q-42 0 -68.5 24t-26.5 72v103h130v-80h-30v-7q0 -36 39 -36q18 0 29.5 11t11.5 26v86h100v-400h-100z" />
    <glyph glyph-name="uni0E30" unicode="&#xe30;" horiz-adv-x="170" 
d="M155 315q0 -28 -20.5 -49t-49.5 -21q-28 0 -49 21t-21 49q0 29 21 49.5t49 20.5q29 0 49.5 -20.5t20.5 -49.5zM155 85q0 -28 -20.5 -49t-49.5 -21q-28 0 -49 21t-21 49q0 29 21 49.5t49 20.5q29 0 49.5 -20.5t20.5 -49.5z" />
    <glyph glyph-name="uni0E31" unicode="&#xe31;" 
d="M-205 440v95h100v-35h135v-60h-235z" />
    <glyph glyph-name="uni0E32" unicode="&#xe32;" horiz-adv-x="255" 
d="M130 0v225q0 51 -20 73t-69 22h-41v80h84q146 0 146 -154v-246h-100z" />
    <glyph glyph-name="uni0E33" unicode="&#xe33;" horiz-adv-x="255" 
d="M-17 490q0 -21 -16 -35.5t-42 -14.5t-42 14.5t-16 35.5t16 35.5t42 14.5t42 -14.5t16 -35.5zM130 0v225q0 51 -20 73t-69 22h-41v80h84q146 0 146 -154v-246h-100z" />
    <glyph glyph-name="uni0E34" unicode="&#xe34;" 
d="M-280 440v60h255v-60h-255z" />
    <glyph glyph-name="uni0E35" unicode="&#xe35;" 
d="M-280 440v60h155v40h100v-100h-255z" />
    <glyph glyph-name="uni0E36" unicode="&#xe36;" 
d="M-18 490q0 -21 -15.5 -35.5t-41.5 -14.5h-205v60h149q7 40 56 40q26 0 41.5 -14.5t15.5 -35.5z" />
    <glyph glyph-name="uni0E37" unicode="&#xe37;" 
d="M-280 440v60h65v40h60v-40h30v40h100v-100h-255z" />
    <glyph glyph-name="uni0E38" unicode="&#xe38;" 
d="M-125 -165v65h-32v60h132v-125h-100z" />
    <glyph glyph-name="uni0E39" unicode="&#xe39;" 
d="M-25 -85q0 -85 -90 -85h-136v70h-32v60h112v-66h14q32 0 32 32v34h100v-45v0z" />
    <glyph glyph-name="uni0E3A" unicode="&#xe3a;" 
d="M-15 -100q0 -25 -17.5 -42.5t-42.5 -17.5t-42.5 17.5t-17.5 42.5t17.5 42.5t42.5 17.5t42.5 -17.5t17.5 -42.5z" />
    <glyph glyph-name="uni0E3F" unicode="&#xe3f;" horiz-adv-x="396" 
d="M372 133q0 -131 -156 -133v-65h-35v65h-145v461h145v64h35v-64h10q60 0 97.5 -30t37.5 -87q0 -83 -73 -108v-1q84 -19 84 -102zM251 327q0 35 -35 44v-87q35 11 35 43zM181 374h-35v-95h35v95zM261 141q0 44 -45 51v-102q45 9 45 51zM181 195h-35v-108h35v108z" />
    <glyph glyph-name="uni0E40" unicode="&#xe40;" horiz-adv-x="170" 
d="M35 0v400h100v-400h-100z" />
    <glyph glyph-name="uni0E41" unicode="&#xe41;" horiz-adv-x="310" 
d="M175 0v400h100v-400h-100zM35 0v400h100v-400h-100z" />
    <glyph glyph-name="uni0E42" unicode="&#xe42;" horiz-adv-x="200" 
d="M158 552q-48 2 -48 -24q0 -5 20 -34t20 -68v-346h40v-80h-140v407q0 36 -24 72q-23 36 -24 61q-1 36 30 59.5t88 22.5l110 -2v-70z" />
    <glyph glyph-name="uni0E43" unicode="&#xe43;" horiz-adv-x="200" 
d="M201 548q0 -30 -26 -68q-25 -35 -25 -64v-336h40v-80h-140v420q0 33 26 62q26 30 27 48q2 30 -28 30q-31 0 -28 -34h-94v14q0 42 31.5 66t80.5 24h23q51 0 82 -22.5t31 -59.5z" />
    <glyph glyph-name="uni0E44" unicode="&#xe44;" horiz-adv-x="200" 
d="M50 0v434q0 30 20 56q21 26 21 37q0 25 -56 23l-75 -2v70l108 2q119 2 120 -75q1 -26 -19 -61q-19 -32 -19 -63v-341h40v-80h-140z" />
    <glyph glyph-name="uni0E45" unicode="&#xe45;" horiz-adv-x="255" 
d="M130 -130v355q0 51 -20 73t-69 22h-41v80h84q146 0 146 -154v-376h-100z" />
    <glyph glyph-name="uni0E46" unicode="&#xe46;" horiz-adv-x="315" 
d="M190 -130v440l-26 -30l-31 30q-25 -4 -25 -44q0 -34 35 -34h17v-80h-44q-111 0 -111 121q0 56 30 92q34 40 95 40h3l31 -31l26 26h100v-530h-100z" />
    <glyph glyph-name="uni0E47" unicode="&#xe47;" 
d="M-67 440q-12 0 -19.5 1t-13.5 3.5t-11.5 7.5t-13.5 13q-21 -25 -58 -25h-92v52q0 76 104 76h56v26h80v-68h-117q-43 0 -43 -28v-3h23q22 0 47 25q22 -25 40 -25h50v-55h-32z" />
    <glyph glyph-name="uni0E48" unicode="&#xe48;" 
d="M-125 560v80h100v-80h-100z" />
    <glyph glyph-name="uni0E49" unicode="&#xe49;" 
d="M-152 560v43h-27v51h112v-43h67v-51h-152z" />
    <glyph glyph-name="uni0E4A" unicode="&#xe4a;" 
d="M32 651q0 -92 -78 -92h-41v38l-27 -24l-26 24v-37h-60v44q0 47 54 47h5l27 -28l28 28h4q55 0 55 -47v-1q14 19 14 48h45v0z" />
    <glyph glyph-name="uni0E4B" unicode="&#xe4b;" 
d="M-36 592v-32h-78v32h-37v44h37v32h78v-32h37v-44h-37z" />
    <glyph glyph-name="uni0E4C" unicode="&#xe4c;" 
d="M-17 554q-24 0 -24 -20v-14h-85v29q0 56 67 56h59v-51h-17z" />
    <glyph glyph-name="uni0E4D" unicode="&#xe4d;" 
d="M-17 490q0 -21 -16 -35.5t-42 -14.5t-42 14.5t-16 35.5t16 35.5t42 14.5t42 -14.5t16 -35.5z" />
    <glyph glyph-name="uni0E4E" unicode="&#xe4e;" 
 />
    <glyph glyph-name="uni0E4F" unicode="&#xe4f;" horiz-adv-x="460" 
d="M435 200q0 -85 -60 -145t-145 -60t-145 60t-60 145t60 145t145 60t145 -60t60 -145zM405 200q0 72 -52 123q-51 52 -123 52t-124 -52q-51 -51 -51 -123q0 -71 51 -124q53 -51 124 -51q72 0 123 51q52 52 52 124zM355 200q0 -52 -37 -89q-36 -36 -88 -36q-51 0 -89 36
q-36 38 -36 89q0 52 36 88q37 37 89 37t88 -37q37 -36 37 -88zM325 200q0 20 -7.5 37t-20.5 30t-30 20.5t-37 7.5q-19 0 -36.5 -7.5t-30.5 -20.5t-20.5 -30t-7.5 -37q0 -19 7.5 -36.5t20.5 -30.5t30.5 -20.5t36.5 -7.5q20 0 37 7.5t30 20.5t20.5 30.5t7.5 36.5z" />
    <glyph glyph-name="uni0E50" unicode="&#xe50;" horiz-adv-x="340" 
d="M325 145q0 -145 -155 -145t-155 145v20q0 145 155 145t155 -145v-20v0zM222 154q0 71 -52 71t-52 -71t52 -71t52 71z" />
    <glyph glyph-name="uni0E51" unicode="&#xe51;" horiz-adv-x="330" 
d="M315 145q-3 -145 -161 -145h-129v80h85q54 0 73 9q29 15 29 65q0 39 -15 52.5t-52 13.5h-20v-45h40v-70h-140v195h151q142 0 139 -155z" />
    <glyph glyph-name="uni0E52" unicode="&#xe52;" horiz-adv-x="440" 
d="M415 134q0 -67 -26 -99q-30 -35 -99 -35h-265v400h100v-330h125q65 0 65 65v85l-26 -30l-31 30q-25 -3 -25 -30q0 -33 35 -31l17 1v-70h-47q-52 0 -74 20q-24 23 -24 80q0 115 115 115h3l31 -31l26 26h100v-166v0z" />
    <glyph glyph-name="uni0E53" unicode="&#xe53;" horiz-adv-x="325" 
d="M200 0v210l-26 -30l-31 30q-25 -16 -25 -68q0 -40 10 -53q8 -9 28 -9h14v-80h-44q-66 0 -90 36q-21 32 -21 114q0 155 125 155h3l31 -31l26 26h100v-300h-100z" />
    <glyph glyph-name="uni0E54" unicode="&#xe54;" horiz-adv-x="355" 
d="M177 0q-81 0 -119 30q-42 33 -43 109q-3 161 163 161h52v100h100v-180h-137q-76 0 -75 -78q1 -39 24 -53q17 -9 59 -9q-34 19 -34 57q0 26 19.5 45.5t45.5 19.5t45.5 -19.5t19.5 -45.5q0 -39 -35 -57h68v-80h-153z" />
    <glyph glyph-name="uni0E55" unicode="&#xe55;" horiz-adv-x="405" 
d="M193 220q-78 0 -75 -78q1 -70 103 -62q-34 19 -34 57q0 26 19.5 45.5t45.5 19.5t45.5 -19.5t19.5 -45.5q0 -39 -35 -57h78v-80h-183q-82 0 -119 31q-42 32 -43 108q-3 140 119 157q-12 15 -12 33q0 25 19 42t49 17q31 0 49.5 -17t18.5 -42q0 -15 -9 -29h36v100h100v-180
h-192z" />
    <glyph glyph-name="uni0E56" unicode="&#xe56;" horiz-adv-x="330" 
d="M315 151q0 -82 -32.5 -116.5t-107.5 -34.5h-150v120h100v-40h20q37 0 52 13.5t15 52.5q0 22 -5 36.5t-17 22.5t-31.5 11.5t-48.5 3.5h-85v180h100v-100h29q161 0 161 -149z" />
    <glyph glyph-name="uni0E57" unicode="&#xe57;" horiz-adv-x="455" 
d="M430 116q0 -50 -23 -82q-25 -34 -71 -34h-136v210l-26 -30l-31 30q-25 -16 -25 -68q0 -40 10 -53q8 -9 28 -9h14v-80h-44q-66 0 -90 36q-21 32 -21 114q0 155 125 155h3l31 -31l26 26h100v-230q30 2 30 48v282h100v-284v0z" />
    <glyph glyph-name="uni0E58" unicode="&#xe58;" horiz-adv-x="325" 
d="M200 0l-26 26l-31 -31h-3q-125 0 -125 151q0 154 149 154h36v100h100v-180h-110q-70 0 -72 -71q-1 -42 25 -59l31 30l26 -30v78h100v-168h-100z" />
    <glyph glyph-name="uni0E59" unicode="&#xe59;" horiz-adv-x="396" 
d="M311 220q-52 0 -52 -53q0 -17 7 -34l50 -133h-96l-77 210q-25 -16 -25 -68q0 -40 10 -53q8 -9 28 -9h14v-80h-44q-66 0 -90 36q-21 32 -21 114q0 155 125 155h65l17 -47q14 42 54 42h10v100h100v-180h-75z" />
    <glyph glyph-name="uni0E5A" unicode="&#xe5a;" 
 />
    <glyph glyph-name="uni0E5B" unicode="&#xe5b;" 
 />
    <glyph glyph-name="zero" unicode="0" horiz-adv-x="360" 
d="M341 230q0 -238 -161 -238q-94 0 -132 74q-29 56 -29 164q0 109 29 165q38 74 132 74q93 0 132 -74q29 -58 29 -165zM234 230q0 155 -54 155t-54 -155t54 -155t54 155z" />
    <glyph glyph-name="one" unicode="1" horiz-adv-x="360" 
d="M164 0v338l-70 -56l-57 77l140 102h98v-461h-111z" />
    <glyph glyph-name="two" unicode="2" horiz-adv-x="360" 
d="M23 0v88q98 93 123 123q59 68 59 108q0 59 -59 59q-63 0 -113 -32v96q69 27 123 27q74 0 114 -33q45 -36 45 -103q0 -99 -126 -218l-30 -28h164v-87h-300z" />
    <glyph glyph-name="three" unicode="3" horiz-adv-x="360" 
d="M326 135q0 -77 -61 -114q-47 -29 -121 -29q-82 0 -121 16v97q34 -22 108 -22q84 0 84 59q0 53 -76 53q-10 0 -21.5 -0.5t-24.5 -1.5v82q5 -1 16.5 -1h30.5q24 0 44 11q25 13 25 40q0 53 -72 53q-64 0 -101 -19v90q60 20 120 20q162 0 162 -126q0 -80 -75 -101v-2
q83 -20 83 -105z" />
    <glyph glyph-name="four" unicode="4" horiz-adv-x="360" 
d="M294 88v-88h-103v88h-186v97l167 276h122v-290h59v-83h-59zM198 366h-1l-113 -195h114v195z" />
    <glyph glyph-name="five" unicode="5" horiz-adv-x="360" 
d="M337 161q0 -89 -62 -133q-49 -36 -131 -36q-51 0 -111 17v99q46 -25 103 -25q94 0 94 74q0 35 -34 53q-30 14 -68 14q-52 0 -91 -11v248h274v-83h-176v-77q27 3 33 3q70 0 116 -33q53 -39 53 -110z" />
    <glyph glyph-name="six" unicode="6" horiz-adv-x="360" 
d="M337 148q0 -64 -44 -111q-43 -45 -111 -45q-83 0 -124 66q-36 57 -36 153q0 258 183 258q60 0 108 -22v-90q-40 28 -94 24q-96 -9 -97 -135h1q30 47 90 47q28 0 51 -11t39 -30t25 -45.5t9 -58.5zM234 137q0 73 -53 73q-26 0 -40 -19.5t-14 -48.5q0 -30 14.5 -50.5
t39.5 -20.5q53 0 53 66z" />
    <glyph glyph-name="seven" unicode="7" horiz-adv-x="360" 
d="M177 0h-119l155 374h-185v87h298v-100z" />
    <glyph glyph-name="eight" unicode="8" horiz-adv-x="360" 
d="M342 130q0 -70 -49 -106q-44 -32 -114 -32q-72 0 -114 30q-47 35 -47 101q0 87 82 114v1q-30 11 -50.5 38t-20.5 60q0 69 46 103q41 30 109 30q66 0 104 -29.5t38 -89.5q0 -76 -68 -105v-1q84 -30 84 -114zM227 341q0 23 -15 35.5t-35 12.5q-21 0 -35 -15t-14 -39
q0 -35 52 -60q47 29 47 66zM235 135q0 45 -62 66q-48 -25 -48 -68q0 -25 15.5 -41.5t37.5 -16.5q24 0 40.5 16t16.5 44z" />
    <glyph glyph-name="nine" unicode="9" horiz-adv-x="360" 
d="M337 250q0 -258 -182 -258q-61 0 -108 21v91q38 -30 93 -25q97 10 97 135h-1q-28 -46 -90 -46q-28 0 -51 11t-39 30t-25 46t-9 58q0 64 44 110q43 46 112 46q84 0 124 -66q35 -58 35 -153zM228 319q0 29 -14.5 49.5t-39.5 20.5q-53 0 -53 -65q0 -73 53 -73q26 0 41 21
q13 17 13 47z" />
    <glyph glyph-name="exclamdown" unicode="&#xa1;" 
 />
    <glyph glyph-name="cent" unicode="&#xa2;" 
 />
    <glyph glyph-name="sterling" unicode="&#xa3;" 
 />
    <glyph glyph-name="currency" unicode="&#xa4;" 
 />
    <glyph glyph-name="yen" unicode="&#xa5;" 
 />
    <glyph glyph-name="brokenbar" unicode="&#xa6;" 
 />
    <glyph glyph-name="section" unicode="&#xa7;" 
 />
    <glyph glyph-name="dieresis" unicode="&#xa8;" 
 />
    <glyph glyph-name="copyright" unicode="&#xa9;" 
 />
    <glyph glyph-name="ordfeminine" unicode="&#xaa;" 
 />
    <glyph glyph-name="guillemotleft" unicode="&#xab;" horiz-adv-x="363" 
d="M240 43l-71 135l71 134h88l-65 -134l65 -135h-88zM99 43l-71 135l71 134h87l-65 -134l65 -135h-87z" />
    <glyph glyph-name="logicalnot" unicode="&#xac;" 
 />
    <glyph glyph-name="macron" unicode="&#xaf;" 
 />
    <glyph glyph-name="degree" unicode="&#xb0;" 
 />
    <glyph glyph-name="plusminus" unicode="&#xb1;" 
 />
    <glyph glyph-name="two.superior" unicode="&#xb2;" 
 />
    <glyph glyph-name="three.superior" unicode="&#xb3;" 
 />
    <glyph glyph-name="acute" unicode="&#xb4;" 
 />
    <glyph glyph-name="mu" unicode="&#xb5;" 
 />
    <glyph glyph-name="paragraph" unicode="&#xb6;" 
 />
    <glyph glyph-name="periodcentered" unicode="&#xb7;" 
 />
    <glyph glyph-name="cedilla" unicode="&#xb8;" 
 />
    <glyph glyph-name="one.superior" unicode="&#xb9;" 
 />
    <glyph glyph-name="ordmasculine" unicode="&#xba;" 
 />
    <glyph glyph-name="guillemotright" unicode="&#xbb;" horiz-adv-x="363" 
d="M265 43h-89l66 135l-66 134h89l70 -134zM123 43h-88l66 135l-66 134h88l70 -134z" />
    <glyph glyph-name="onequarter" unicode="&#xbc;" 
 />
    <glyph glyph-name="onehalf" unicode="&#xbd;" 
 />
    <glyph glyph-name="threequarters" unicode="&#xbe;" 
 />
    <glyph glyph-name="questiondown" unicode="&#xbf;" 
 />
    <glyph glyph-name="Agrave" unicode="&#xc0;" 
 />
    <glyph glyph-name="Aacute" unicode="&#xc1;" 
 />
    <glyph glyph-name="Acircumflex" unicode="&#xc2;" 
 />
    <glyph glyph-name="Atilde" unicode="&#xc3;" 
 />
    <glyph glyph-name="Adieresis" unicode="&#xc4;" 
 />
    <glyph glyph-name="Aring" unicode="&#xc5;" 
 />
    <glyph glyph-name="AE" unicode="&#xc6;" 
 />
    <glyph glyph-name="Ccedilla" unicode="&#xc7;" 
 />
    <glyph glyph-name="Egrave" unicode="&#xc8;" 
 />
    <glyph glyph-name="Eacute" unicode="&#xc9;" 
 />
    <glyph glyph-name="Ecircumflex" unicode="&#xca;" 
 />
    <glyph glyph-name="Edieresis" unicode="&#xcb;" 
 />
    <glyph glyph-name="Igrave" unicode="&#xcc;" 
 />
    <glyph glyph-name="Iacute" unicode="&#xcd;" 
 />
    <glyph glyph-name="Icircumflex" unicode="&#xce;" 
 />
    <glyph glyph-name="Idieresis" unicode="&#xcf;" 
 />
    <glyph glyph-name="Eth" unicode="&#xd0;" 
 />
    <glyph glyph-name="Ntilde" unicode="&#xd1;" 
 />
    <glyph glyph-name="Ograve" unicode="&#xd2;" 
 />
    <glyph glyph-name="Oacute" unicode="&#xd3;" 
 />
    <glyph glyph-name="Ocircumflex" unicode="&#xd4;" 
 />
    <glyph glyph-name="Otilde" unicode="&#xd5;" 
 />
    <glyph glyph-name="Odieresis" unicode="&#xd6;" 
 />
    <glyph glyph-name="multiply" unicode="&#xd7;" horiz-adv-x="360" 
d="M279 11l-99 99l-99 -99l-57 57l99 99l-99 99l57 57l99 -99l99 99l57 -57l-99 -99l99 -99z" />
    <glyph glyph-name="Oslash" unicode="&#xd8;" 
 />
    <glyph glyph-name="Ugrave" unicode="&#xd9;" 
 />
    <glyph glyph-name="Uacute" unicode="&#xda;" 
 />
    <glyph glyph-name="Ucircumflex" unicode="&#xdb;" 
 />
    <glyph glyph-name="Udieresis" unicode="&#xdc;" 
 />
    <glyph glyph-name="Yacute" unicode="&#xdd;" 
 />
    <glyph glyph-name="Thorn" unicode="&#xde;" 
 />
    <glyph glyph-name="germandbls" unicode="&#xdf;" 
 />
    <glyph glyph-name="agrave" unicode="&#xe0;" 
 />
    <glyph glyph-name="aacute" unicode="&#xe1;" 
 />
    <glyph glyph-name="acircumflex" unicode="&#xe2;" 
 />
    <glyph glyph-name="atilde" unicode="&#xe3;" 
 />
    <glyph glyph-name="adieresis" unicode="&#xe4;" 
 />
    <glyph glyph-name="aring" unicode="&#xe5;" 
 />
    <glyph glyph-name="ae" unicode="&#xe6;" 
 />
    <glyph glyph-name="ccedilla" unicode="&#xe7;" 
 />
    <glyph glyph-name="egrave" unicode="&#xe8;" 
 />
    <glyph glyph-name="eacute" unicode="&#xe9;" 
 />
    <glyph glyph-name="ecircumflex" unicode="&#xea;" 
 />
    <glyph glyph-name="edieresis" unicode="&#xeb;" 
 />
    <glyph glyph-name="igrave" unicode="&#xec;" 
 />
    <glyph glyph-name="iacute" unicode="&#xed;" 
 />
    <glyph glyph-name="icircumflex" unicode="&#xee;" 
 />
    <glyph glyph-name="idieresis" unicode="&#xef;" 
 />
    <glyph glyph-name="eth" unicode="&#xf0;" 
 />
    <glyph glyph-name="ntilde" unicode="&#xf1;" 
 />
    <glyph glyph-name="ograve" unicode="&#xf2;" 
 />
    <glyph glyph-name="oacute" unicode="&#xf3;" 
 />
    <glyph glyph-name="ocircumflex" unicode="&#xf4;" 
 />
    <glyph glyph-name="otilde" unicode="&#xf5;" 
 />
    <glyph glyph-name="odieresis" unicode="&#xf6;" 
 />
    <glyph glyph-name="divide" unicode="&#xf7;" horiz-adv-x="360" 
d="M225 289q0 -19 -13 -32t-32 -13t-32 13t-13 32t13 32t32 13t32 -13t13 -32zM20 127v80h320v-80h-320zM225 45q0 -19 -13 -32t-32 -13t-32 13t-13 32t13 32t32 13t32 -13t13 -32z" />
    <glyph glyph-name="oslash" unicode="&#xf8;" 
 />
    <glyph glyph-name="ugrave" unicode="&#xf9;" 
 />
    <glyph glyph-name="uacute" unicode="&#xfa;" 
 />
    <glyph glyph-name="ucircumflex" unicode="&#xfb;" 
 />
    <glyph glyph-name="udieresis" unicode="&#xfc;" 
 />
    <glyph glyph-name="yacute" unicode="&#xfd;" 
 />
    <glyph glyph-name="thorn" unicode="&#xfe;" 
 />
    <glyph glyph-name="ydieresis" unicode="&#xff;" 
 />
    <glyph glyph-name="dotlessi" unicode="&#x131;" 
 />
    <glyph glyph-name="Lslash" unicode="&#x141;" 
 />
    <glyph glyph-name="lslash" unicode="&#x142;" 
 />
    <glyph glyph-name="OE" unicode="&#x152;" 
 />
    <glyph glyph-name="oe" unicode="&#x153;" 
 />
    <glyph glyph-name="Scaron" unicode="&#x160;" 
 />
    <glyph glyph-name="scaron" unicode="&#x161;" 
 />
    <glyph glyph-name="Ydieresis" unicode="&#x178;" 
 />
    <glyph glyph-name="Zcaron" unicode="&#x17d;" 
 />
    <glyph glyph-name="zcaron" unicode="&#x17e;" 
 />
    <glyph glyph-name="florin" unicode="&#x192;" 
 />
    <glyph glyph-name="circumflex" unicode="&#x2c6;" 
 />
    <glyph glyph-name="caron" unicode="&#x2c7;" 
 />
    <glyph glyph-name="breve" unicode="&#x2d8;" 
 />
    <glyph glyph-name="dotaccent" unicode="&#x2d9;" 
 />
    <glyph glyph-name="ring" unicode="&#x2da;" horiz-adv-x="255" 
d="M184 372q0 -21 -16 -35.5t-42 -14.5t-42 14.5t-16 35.5t16 35.5t42 14.5t42 -14.5t16 -35.5z" />
    <glyph glyph-name="ogonek" unicode="&#x2db;" 
 />
    <glyph glyph-name="tilde" unicode="&#x2dc;" 
 />
    <glyph glyph-name="hungarumlaut" unicode="&#x2dd;" 
 />
    <glyph glyph-name="endash" unicode="&#x2013;" horiz-adv-x="360" 
d="M0 127v80h360v-80h-360z" />
    <glyph glyph-name="emdash" unicode="&#x2014;" horiz-adv-x="720" 
d="M0 127v80h720v-80h-720z" />
    <glyph glyph-name="quoteleft" unicode="&#x2018;" horiz-adv-x="198" 
d="M185 461q-47 -41 -47 -101v-59h-100v58q0 59 52 102h95v0z" />
    <glyph glyph-name="quoteright" unicode="&#x2019;" horiz-adv-x="198" 
d="M160 403q0 -59 -52 -102h-95q47 41 47 101v59h100v-58v0z" />
    <glyph glyph-name="quotesinglbase" unicode="&#x201a;" 
 />
    <glyph glyph-name="quotedblleft" unicode="&#x201c;" horiz-adv-x="348" 
d="M335 461q-47 -41 -47 -101v-59h-100v58q0 59 52 102h95v0zM185 461q-47 -41 -47 -101v-59h-100v58q0 59 52 102h95v0z" />
    <glyph glyph-name="quotedblright" unicode="&#x201d;" horiz-adv-x="348" 
d="M310 403q0 -59 -52 -102h-95q47 41 47 101v59h100v-58v0zM160 403q0 -59 -52 -102h-95q47 41 47 101v59h100v-58v0z" />
    <glyph glyph-name="quotedblbase" unicode="&#x201e;" 
 />
    <glyph glyph-name="dagger" unicode="&#x2020;" 
 />
    <glyph glyph-name="daggerdbl" unicode="&#x2021;" 
 />
    <glyph glyph-name="bullet" unicode="&#x2022;" horiz-adv-x="460" 
d="M435 200q0 -85 -60 -145t-145 -60t-145 60t-60 145t60 145t145 60t145 -60t60 -145z" />
    <glyph glyph-name="ellipsis" unicode="&#x2026;" horiz-adv-x="630" 
d="M475 0v100h100v-100h-100zM265 0v100h100v-100h-100zM55 0v100h100v-100h-100z" />
    <glyph glyph-name="perthousand" unicode="&#x2030;" 
 />
    <glyph glyph-name="minute" unicode="&#x2032;" 
 />
    <glyph glyph-name="second" unicode="&#x2033;" 
 />
    <glyph glyph-name="guilsinglleft" unicode="&#x2039;" 
 />
    <glyph glyph-name="guilsinglright" unicode="&#x203a;" 
 />
    <glyph glyph-name="fraction" unicode="&#x2044;" 
 />
    <glyph glyph-name="Euro" unicode="&#x20ac;" 
 />
    <glyph glyph-name="afii61289" unicode="&#x2113;" 
 />
    <glyph glyph-name="trademark" unicode="&#x2122;" 
 />
    <glyph glyph-name="Ohm" unicode="&#x2126;" 
 />
    <glyph glyph-name="estimated" unicode="&#x212e;" 
 />
    <glyph glyph-name="partialdiff" unicode="&#x2202;" 
 />
    <glyph glyph-name="uni2206" unicode="&#x2206;" 
 />
    <glyph glyph-name="product" unicode="&#x220f;" 
 />
    <glyph glyph-name="summation" unicode="&#x2211;" 
 />
    <glyph glyph-name="minus" unicode="&#x2212;" horiz-adv-x="360" 
d="M0 127v80h360v-80h-360z" />
    <glyph glyph-name="radical" unicode="&#x221a;" 
 />
    <glyph glyph-name="infinity" unicode="&#x221e;" 
 />
    <glyph glyph-name="integral" unicode="&#x222b;" 
 />
    <glyph glyph-name="approxequal" unicode="&#x2248;" 
 />
    <glyph glyph-name="notequal" unicode="&#x2260;" 
 />
    <glyph glyph-name="lessequal" unicode="&#x2264;" 
 />
    <glyph glyph-name="greaterequal" unicode="&#x2265;" 
 />
    <glyph glyph-name="lozenge" unicode="&#x25ca;" 
 />
    <glyph glyph-name="dottedcircle" unicode="&#x25cc;" 
 />
    <glyph glyph-name="uni0E10.alt1" unicode="&#xf700;" horiz-adv-x="320" 
d="M305 205q0 -205 -141 -205h-119v170h-30v80h130v-170q57 -4 57 116q0 64 -20 92q-23 32 -82 32h-85v80h135q5 0 11.5 -0.5t15.5 -1.5q11 13 10 32h113q-7 -43 -54 -61q59 -50 59 -164z" />
    <glyph glyph-name="uni0E34.alt1" unicode="&#xf701;" 
d="M-305 500v60h280v-60h-280z" />
    <glyph glyph-name="uni0E35.alt1" unicode="&#xf702;" 
d="M-305 500v60h180v40h100v-100h-280z" />
    <glyph glyph-name="uni0E36.alt1" unicode="&#xf703;" 
d="M-18 550q0 -21 -15.5 -35.5t-41.5 -14.5h-230v60h174q7 40 56 40q26 0 41.5 -14.5t15.5 -35.5z" />
    <glyph glyph-name="uni0E37.alt1" unicode="&#xf704;" 
d="M-305 500v60h90v40h60v-40h30v40h100v-100h-280z" />
    <glyph glyph-name="uni0E48.alt1" unicode="&#xf705;" 
d="M-125 500v110h100v-110h-100z" />
    <glyph glyph-name="uni0E49.alt1" unicode="&#xf706;" 
d="M-163 500v50h-32v60h132v-50h78v-60h-178z" />
    <glyph glyph-name="uni0E4A.alt1" unicode="&#xf707;" 
d="M-17 614q0 -114 -97 -114h-52v47l-32 -29l-32 29v-46h-76v55q0 58 68 58h6l34 -34l34 34h6q68 0 68 -58v-1q16 20 16 59h57v0z" />
    <glyph glyph-name="uni0E4B.alt1" unicode="&#xf708;" 
d="M-32 535v-35h-86v35h-42v50h42v35h86v-35h42v-50h-42z" />
    <glyph glyph-name="uni0E4C.alt1" unicode="&#xf709;" 
d="M-129 510q-28 0 -28 -24v-16h-100v34q0 66 79 66h69v-60h-20z" />
    <glyph glyph-name="uni0E48.alt2" unicode="&#xf70a;" 
d="M-125 440v110h100v-110h-100z" />
    <glyph glyph-name="uni0E49.alt2" unicode="&#xf70b;" 
d="M-163 440v50h-32v60h132v-50h78v-60h-178z" />
    <glyph glyph-name="uni0E4A.alt2" unicode="&#xf70c;" 
d="M3 553q0 -114 -97 -114h-52v47l-32 -29l-32 29v-46h-76v55q0 58 68 58h6l34 -34l34 34h6q68 0 68 -58v-1q16 20 16 59h57v0z" />
    <glyph glyph-name="uni0E4B.alt2" unicode="&#xf70d;" 
d="M-32 475v-35h-86v35h-42v50h42v35h86v-35h42v-50h-42z" />
    <glyph glyph-name="uni0E4C.alt2" unicode="&#xf70e;" 
d="M-27 480q-28 0 -28 -24v-16h-100v34q0 66 79 66h69v-60h-20z" />
    <glyph glyph-name="uni0E0D.alt1" unicode="&#xf70f;" horiz-adv-x="510" 
d="M485 157q0 -84 -37 -120.5t-128 -36.5h-115v80h85q44 0 62 5q33 11 33 45q-25 -24 -72 -24q-108 0 -108 102v40q0 72 -64 72h-16v-240h40v-80h-140v400h134q71 0 110 -36q36 -34 36 -94v-43q0 -41 41 -41q39 0 39 41v173h100v-243v0z" />
    <glyph glyph-name="uni0E31.alt1" unicode="&#xf710;" 
d="M-205 500v95h100v-35h135v-60h-235z" />
    <glyph glyph-name="uni0E4D.alt1" unicode="&#xf711;" 
d="M-17 550q0 -21 -16 -35.5t-42 -14.5t-42 14.5t-16 35.5t16 35.5t42 14.5t42 -14.5t16 -35.5z" />
    <glyph glyph-name="uni0E47.alt1" unicode="&#xf712;" 
d="M-77 500q-12 0 -19.5 1t-13.5 3.5t-11.5 7.5t-13.5 13q-21 -25 -58 -25h-102v52q0 76 104 76h66v26h80v-68h-127q-43 0 -43 -28v-3h33q22 0 47 25q22 -25 40 -25h50v-55h-32z" />
    <glyph glyph-name="uni0E48.alt3" unicode="&#xf713;" 
d="M-125 620v80h100v-80h-100z" />
    <glyph glyph-name="uni0E49.alt3" unicode="&#xf714;" 
d="M-152 620v43h-27v51h112v-43h67v-51h-152z" />
    <glyph glyph-name="uni0E4A.alt3" unicode="&#xf715;" 
d="M32 712q0 -92 -78 -92h-41v38l-27 -24l-26 24v-37h-60v44q0 47 54 47h5l27 -28l28 28h4q55 0 55 -47v-1q14 19 14 48h45v0z" />
    <glyph glyph-name="uni0E4B.alt3" unicode="&#xf716;" 
d="M-36 652v-32h-78v32h-37v44h37v32h78v-32h37v-44h-37z" />
    <glyph glyph-name="uni0E4C.alt3" unicode="&#xf717;" 
d="M-17 624q-24 0 -24 -20v-14h-85v29q0 56 67 56h59v-51h-17z" />
    <glyph glyph-name="uni0E38.alt1" unicode="&#xf718;" 
d="M-125 -295v65h-32v60h132v-125h-100z" />
    <glyph glyph-name="uni0E39.alt1" unicode="&#xf719;" 
d="M-25 -215q0 -85 -90 -85h-136v70h-32v60h112v-66h14q32 0 32 32v34h100v-45v0z" />
    <glyph glyph-name="uni0E3A.alt1" unicode="&#xf71a;" 
d="M-25 -230q0 -25 -17.5 -42.5t-42.5 -17.5t-42.5 17.5t-17.5 42.5t17.5 42.5t42.5 17.5t42.5 -17.5t17.5 -42.5z" />
    <glyph glyph-name="uni0E0E.alt1" unicode="&#xf71b;" horiz-adv-x="340" 
d="M237 -120q-43 0 -72 30q-25 -30 -68 -30h-62v70h80q32 0 50 30q18 -30 50 -30v298q0 72 -64 72h-16v-320h-140v80h40v320h134q71 0 110 -36q36 -34 36 -94v-390h-78z" />
    <glyph glyph-name="uni0E0F.alt1" unicode="&#xf71c;" horiz-adv-x="340" 
d="M237 -140q-43 0 -72 30q-25 -30 -68 -30h-72v100h90v-30q31 -1 50 30q18 -30 50 -30v318q0 72 -64 72h-16v-320h-140v80h40v320h134q71 0 110 -36q36 -34 36 -94v-410h-78z" />
    <glyph glyph-name="uni0E2C.alt1" unicode="&#xf71d;" horiz-adv-x="430" 
d="M405 104q0 -51 -31 -78.5t-88 -27.5q-8 0 -15.5 0.5t-15.5 1.5l-40 30l-40 -30q-8 -1 -15.5 -1.5t-15.5 -0.5q-57 0 -88 27.5t-31 78.5v296h100v-287q0 -33 28 -33h12v204h100v-204h13q27 0 27 33v137q0 74 -60 74h-80v76h80q60 0 60 35v9h100v-19q0 -24 -18.5 -43.5
t-48.5 -20.5q67 -19 67 -104v-153v0z" />
    <glyph glyph-name="colon" unicode=":" horiz-adv-x="180" 
d="M40 244v100h100v-100h-100zM40 0v100h100v-100h-100z" />
    <glyph glyph-name="semicolon" unicode=";" horiz-adv-x="180" 
d="M40 244v100h100v-100h-100zM140 29q0 -59 -52 -102h-95q47 41 47 101v59h100v-58v0z" />
    <glyph glyph-name="less" unicode="&#x3c;" horiz-adv-x="360" 
d="M30 132v70l300 137v-80l-202 -92l202 -92v-80z" />
    <glyph glyph-name="equal" unicode="=" horiz-adv-x="360" 
d="M20 202v80h320v-80h-320zM20 52v80h320v-80h-320z" />
    <glyph glyph-name="greater" unicode="&#x3e;" horiz-adv-x="360" 
d="M30 -5v80l202 92l-202 92v80l300 -137v-70z" />
    <glyph glyph-name="question" unicode="?" horiz-adv-x="315" 
d="M292 358q0 -45 -47 -103q-47 -56 -50 -99h-87q0 46 38 99q39 53 39 79q0 23 -20.5 35t-45.5 12q-52 0 -93 -24l-2 92q58 20 124 20q59 0 97 -25q47 -30 47 -86zM101 0v107h100v-107h-100z" />
    <glyph glyph-name="at" unicode="@" horiz-adv-x="528" 
d="M504 276q0 -94 -71 -147q-49 -37 -98 -37q-33 0 -33 32h-2q-29 -32 -66 -32q-40 0 -72 36q-30 38 -30 91t35 93q34 40 90 40q51 0 80 -38l6 31h62l-23 -138l-6 -36q0 -13 8 -13q20 0 37 23q19 26 19 74q2 150 -169 150q-77 0 -124 -50t-47 -126q0 -84 48.5 -129
t130.5 -45q73 0 126 35h67q-71 -98 -192 -98q-110 0 -183 67t-73 171q0 103 71 171t181 68q96 0 160 -52q68 -56 68 -141zM320 227q0 27 -15 44t-40 17q-28 0 -45 -21t-17 -49q0 -63 56 -63q28 0 44.5 20t16.5 52z" />
    <glyph glyph-name="A" unicode="A" horiz-adv-x="456" 
d="M334 0l-32 98h-156l-32 -98h-113l158 461h136l159 -461h-120zM226 366l-54 -181h104z" />
    <glyph glyph-name="B" unicode="B" horiz-adv-x="390" 
d="M369 133q0 -133 -161 -133h-175v461h190q60 0 97.5 -30t37.5 -87q0 -83 -73 -108v-1q84 -19 84 -102zM248 327q0 47 -73 47h-32v-95h31q74 0 74 48zM258 141q0 54 -81 54h-34v-108h33q82 0 82 54z" />
    <glyph glyph-name="C" unicode="C" horiz-adv-x="390" 
d="M381 11q-63 -19 -123 -19q-95 0 -160 53q-78 63 -78 183q0 116 68 181q63 60 170 60q50 0 122 -24v-100q-52 33 -117 33q-29 0 -52.5 -11t-40.5 -31t-26.5 -47.5t-9.5 -60.5q0 -67 37.5 -106t100.5 -39q52 0 109 24v-96v0z" />
    <glyph glyph-name="D" unicode="D" horiz-adv-x="456" 
d="M432 232q0 -232 -245 -232h-151v461h151q118 0 177 -47q68 -56 68 -182zM317 230q0 140 -128 140h-43v-279h43q128 0 128 139z" />
    <glyph glyph-name="E" unicode="E" horiz-adv-x="357" 
d="M33 0v461h292v-87h-182v-95h172v-88h-172v-104h189v-87h-299z" />
    <glyph glyph-name="F" unicode="F" horiz-adv-x="324" 
d="M143 374v-101h160v-88h-160v-185h-110v461h277v-87h-167z" />
    <glyph glyph-name="G" unicode="G" horiz-adv-x="456" 
d="M419 13q-73 -21 -161 -21q-95 0 -160 53q-78 63 -78 183q0 241 262 241q76 0 125 -21v-100q-46 30 -109 30q-73 0 -116 -34q-48 -39 -48 -116q0 -67 37.5 -106t100.5 -39q22 0 40 8v91h-65v87h172v-256v0z" />
    <glyph glyph-name="H" unicode="H" horiz-adv-x="423" 
d="M277 0v197h-131v-197h-110v461h110v-177h131v177h111v-461h-111z" />
    <glyph glyph-name="I" unicode="I" horiz-adv-x="192" 
d="M41 0v461h111v-461h-111z" />
    <glyph glyph-name="J" unicode="J" horiz-adv-x="258" 
d="M222 159q0 -167 -149 -167q-29 0 -68 13v101q24 -11 50 -11q56 0 56 101v265h111v-302v0z" />
    <glyph glyph-name="K" unicode="K" horiz-adv-x="423" 
d="M276 0l-129 209h-1v-209h-110v461h110v-188h1l125 188h133l-153 -215l165 -246h-141z" />
    <glyph glyph-name="L" unicode="L" horiz-adv-x="324" 
d="M36 0v461h110v-370h171v-91h-281z" />
    <glyph glyph-name="M" unicode="M" horiz-adv-x="588" 
d="M447 0l2 354h-1l-106 -354h-101l-102 354h-1l3 -354h-108v461h174l88 -307h1l92 307h167v-461h-108z" />
    <glyph glyph-name="N" unicode="N" horiz-adv-x="456" 
d="M281 0l-145 315l3 -315h-102v461h141l140 -313h1l-2 313h102v-461h-138z" />
    <glyph glyph-name="O" unicode="O" horiz-adv-x="456" 
d="M436 230q0 -112 -54 -175t-154 -63t-154 63t-54 175q0 114 53 176.5t155 62.5t155 -62.5t53 -176.5zM322 230q0 66 -22 104q-26 44 -72 44t-72 -44q-22 -38 -22 -104q0 -64 22 -102q26 -45 72 -45q47 0 72 45q22 38 22 102z" />
    <glyph glyph-name="P" unicode="P" horiz-adv-x="357" 
d="M347 310q0 -70 -43 -109.5t-121 -39.5h-43v-161h-111v461h133q185 0 185 -151zM237 312q0 62 -68 62h-29v-126h29q68 0 68 64z" />
    <glyph glyph-name="Q" unicode="Q" horiz-adv-x="456" 
d="M436 230q0 -161 -106 -215l98 -102h-124l-70 79h-6q-100 0 -154 63t-54 175q0 114 53 176.5t155 62.5t155 -62.5t53 -176.5zM322 230q0 66 -22 104q-26 44 -72 44t-72 -44q-22 -38 -22 -104q0 -64 22 -102q26 -45 72 -45q47 0 72 45q22 38 22 102z" />
    <glyph glyph-name="R" unicode="R" horiz-adv-x="390" 
d="M268 0l-24 83q-16 58 -32 79q-15 20 -46 20h-23v-182h-110v461h197q60 0 94 -28q39 -31 39 -88q0 -96 -79 -117v-1q23 -8 36 -34q2 -5 7.5 -22t15.5 -46l40 -125h-115zM253 323q0 51 -81 51h-29v-105h29q36 0 54 8q27 12 27 46z" />
    <glyph glyph-name="S" unicode="S" horiz-adv-x="357" 
d="M334 144q0 -152 -183 -152q-66 0 -123 20v102q47 -31 123 -31q68 0 68 45q0 34 -51 53q-80 30 -94 39q-51 35 -51 107q0 75 59 113q47 29 122 29q60 0 106 -18v-95q-43 22 -99 22q-74 0 -74 -43q0 -29 51 -46q38 -13 61.5 -22.5t33.5 -15.5q51 -34 51 -107z" />
    <glyph glyph-name="T" unicode="T" horiz-adv-x="324" 
d="M217 370v-370h-110v370h-102v91h314v-91h-102z" />
    <glyph glyph-name="U" unicode="U" horiz-adv-x="423" 
d="M393 175q0 -91 -50 -139q-49 -44 -132 -44q-84 0 -131 44q-51 48 -51 139v286h111v-266q0 -112 71 -112t71 112v266h111v-286v0z" />
    <glyph glyph-name="V" unicode="V" horiz-adv-x="423" 
d="M279 0h-137l-139 461h117l93 -362h1l93 362h113z" />
    <glyph glyph-name="W" unicode="W" horiz-adv-x="588" 
d="M494 0h-142l-59 354h-2l-54 -354h-143l-93 461h114l53 -354h1l56 354h140l59 -354l54 354h108z" />
    <glyph glyph-name="X" unicode="X" horiz-adv-x="423" 
d="M288 0l-80 170l-80 -170h-125l134 242l-120 219h129l70 -152l71 152h121l-121 -219l133 -242h-132z" />
    <glyph glyph-name="Y" unicode="Y" horiz-adv-x="423" 
d="M267 174v-174h-110v174l-154 287h127l82 -185l80 185h127z" />
    <glyph glyph-name="Z" unicode="Z" horiz-adv-x="357" 
d="M12 0v98l197 272h-191v91h317v-98l-203 -272h205v-91h-325z" />
    <glyph glyph-name="bracketleft" unicode="[" horiz-adv-x="231" 
d="M52 -92v591h157v-75h-68v-441h68v-75h-157z" />
    <glyph glyph-name="backslash" unicode="\" horiz-adv-x="185" 
d="M113 -8l-116 477h75l115 -477h-74z" />
    <glyph glyph-name="bracketright" unicode="]" horiz-adv-x="231" 
d="M22 -92v75h68v441h-68v75h157v-591h-157z" />
    <glyph glyph-name="asciicircum" unicode="^" horiz-adv-x="360" 
d="M244 220l-64 150l-64 -150h-73l104 241h66l104 -241h-73z" />
    <glyph glyph-name="underscore" unicode="_" horiz-adv-x="360" 
d="M0 -100v50h360v-50h-360z" />
    <glyph glyph-name="grave" unicode="`" horiz-adv-x="198" 
d="M71 386l-76 95h110l41 -95h-75z" />
    <glyph glyph-name="a" unicode="a" horiz-adv-x="357" 
d="M233 0l-3 54h-1q-35 -62 -98 -62q-49 0 -81 26q-35 29 -35 82q0 118 160 118q25 0 50 -5q0 60 -71 60q-56 0 -100 -26v80q51 25 124 25q63 0 103 -32q44 -38 44 -111v-128q0 -49 6 -81h-98zM225 152q-14 1 -25.5 1.5t-19.5 0.5q-65 0 -65 -45q0 -38 44 -38q28 0 48 26
q18 23 18 55z" />
    <glyph glyph-name="b" unicode="b" horiz-adv-x="391" 
d="M375 178q0 -80 -36 -131q-39 -55 -105 -55q-36 0 -66 20t-41 49v-61h-99v495h108v-195q37 52 107 52q60 0 98 -56q34 -49 34 -118zM265 176q0 36 -17.5 60.5t-47.5 24.5q-29 0 -47 -25.5t-18 -64.5q0 -37 19 -62.5t46 -25.5q30 0 47.5 25.5t17.5 67.5z" />
    <glyph glyph-name="c" unicode="c" horiz-adv-x="291" 
d="M282 7q-39 -15 -87 -15q-78 0 -128 47q-52 49 -52 133t52 133q50 47 128 47q51 0 85 -19v-87q-28 19 -72 19q-35 0 -58.5 -26t-23.5 -69q0 -40 26 -65.5t62 -25.5q39 0 68 17v-89v0z" />
    <glyph glyph-name="d" unicode="d" horiz-adv-x="391" 
d="M264 0v61h-1q-11 -29 -40.5 -49t-65.5 -20q-67 0 -106 55q-36 51 -36 131q0 69 35 119q37 55 98 55q69 0 106 -52h1v195h108v-495h-99zM256 171q0 39 -18 64.5t-48 25.5t-47 -25t-17 -60q0 -42 17 -67.5t47 -25.5q27 0 46.5 25.5t19.5 62.5z" />
    <glyph glyph-name="e" unicode="e" horiz-adv-x="357" 
d="M124 137q8 -66 91 -66q50 0 93 27v-84q-48 -22 -113 -22q-78 0 -128 48q-52 49 -52 132q0 85 45.5 132.5t120.5 47.5q82 0 122 -58q34 -49 34 -135v-22h-213zM241 205q0 72 -60 72q-53 0 -59 -72h119v0z" />
    <glyph glyph-name="f" unicode="f" horiz-adv-x="258" 
d="M253 414q-13 6 -40 6q-39 0 -39 -55v-21h77v-83h-77v-261h-106v261h-63v83h65v21q0 75 31.5 106.5t97.5 31.5q23 0 54 -7v-82v0z" />
    <glyph glyph-name="g" unicode="g" horiz-adv-x="391" 
d="M358 40q0 -103 -44.5 -145t-141.5 -42q-67 0 -118 22v94q49 -28 109 -28q95 0 95 99v19h-1q-36 -59 -103 -59q-32 0 -57.5 12.5t-43.5 35.5t-28 54.5t-10 70.5q0 81 35.5 130t104.5 49q68 0 105 -70h2v62h96v-304v0zM254 180q0 33 -15 55q-20 26 -52 26q-29 0 -45 -24.5
t-16 -61.5q0 -39 17.5 -61.5t43.5 -22.5q29 0 48 25t19 64z" />
    <glyph glyph-name="h" unicode="h" horiz-adv-x="390" 
d="M253 0v166q0 87 -49 87q-67 0 -67 -108v-145h-107v495h107v-202h1q39 59 104 59q60 0 91 -42q27 -37 27 -96v-214h-107z" />
    <glyph glyph-name="i" unicode="i" horiz-adv-x="192" 
d="M43 400v87h107v-87h-107zM43 0v344h107v-344h-107z" />
    <glyph glyph-name="j" unicode="j" horiz-adv-x="192" 
d="M43 400v87h107v-87h-107zM150 -3q0 -144 -108 -144q-32 0 -59 6v76q5 -1 10.5 -1.5t13.5 -0.5q36 0 36 67v344h107v-347v0z" />
    <glyph glyph-name="k" unicode="k" horiz-adv-x="357" 
d="M224 0l-86 170h-1v-170h-107v495h107v-296h1l89 145h117l-107 -158l116 -186h-129z" />
    <glyph glyph-name="l" unicode="l" horiz-adv-x="192" 
d="M43 0v495h107v-495h-107z" />
    <glyph glyph-name="m" unicode="m" horiz-adv-x="588" 
d="M451 0v185q0 68 -43 68q-61 0 -61 -108v-145h-106v185q0 68 -43 68q-61 0 -61 -108v-145h-107v344h97v-64h2q30 72 113 72q74 0 96 -66q36 66 111 66q63 0 88 -40q21 -33 21 -109v-203h-107z" />
    <glyph glyph-name="n" unicode="n" horiz-adv-x="390" 
d="M253 0v166q0 87 -49 87q-67 0 -67 -108v-145h-107v344h97v-64h2q30 72 113 72q60 0 91 -42q27 -37 27 -96v-214h-107z" />
    <glyph glyph-name="o" unicode="o" horiz-adv-x="391" 
d="M375 172q0 -42 -13.5 -75.5t-37.5 -56.5t-57 -35.5t-72 -12.5q-78 0 -128 47q-52 49 -52 133t52 133q50 47 128 47q39 0 72 -12.5t57 -35.5t37.5 -56.5t13.5 -75.5zM265 172q0 42 -17.5 69.5t-52.5 27.5q-69 0 -69 -97t69 -97q35 0 52.5 27.5t17.5 69.5z" />
    <glyph glyph-name="p" unicode="p" horiz-adv-x="391" 
d="M375 178q0 -80 -36 -131q-39 -55 -105 -55q-71 0 -98 56h-1v-187h-107v483h99v-62q31 70 116 70q60 0 98 -56q34 -49 34 -118zM265 176q0 36 -17.5 60.5t-47.5 24.5q-29 0 -47 -25.5t-18 -64.5q0 -37 19 -62.5t46 -25.5q30 0 47.5 25.5t17.5 67.5z" />
    <glyph glyph-name="q" unicode="q" horiz-adv-x="391" 
d="M256 -139v187h-2q-26 -56 -97 -56q-67 0 -106 55q-36 51 -36 131q0 69 35 119q37 55 98 55q85 0 115 -70h1v62h99v-483h-107zM256 171q0 39 -18 64.5t-48 25.5t-47 -25t-17 -60q0 -42 17 -67.5t47 -25.5q27 0 46.5 25.5t19.5 62.5z" />
    <glyph glyph-name="r" unicode="r" horiz-adv-x="258" 
d="M256 249q-11 4 -41 4q-78 0 -78 -108v-145h-107v344h97v-64h2q29 72 91 72q19 0 36 -4v-99v0z" />
    <glyph glyph-name="s" unicode="s" horiz-adv-x="291" 
d="M275 107q0 -115 -145 -115q-66 0 -111 17v86q50 -24 106 -24q43 0 43 28q0 22 -39 35q-61 20 -74 27q-39 26 -39 79q0 55 43 86q37 26 89 26q62 0 108 -20v-83q-33 24 -91 24q-49 0 -49 -24q0 -20 41 -32q61 -17 77 -27q41 -26 41 -83z" />
    <glyph glyph-name="t" unicode="t" horiz-adv-x="258" 
d="M250 -1q-23 -4 -40 -5.5t-27 -1.5q-68 0 -95 34q-24 29 -24 95v140h-61v83h63v113h105v-113h75v-83h-75v-127q0 -63 43 -63q18 0 36 5v-77v0z" />
    <glyph glyph-name="u" unicode="u" horiz-adv-x="390" 
d="M262 0v63q-32 -71 -114 -71q-58 0 -90 42q-28 37 -28 95v215h107v-166q0 -87 50 -87q66 0 66 108v145h107v-344h-98z" />
    <glyph glyph-name="v" unicode="v" horiz-adv-x="357" 
d="M239 0h-121l-115 344h115l63 -245h2l65 245h106z" />
    <glyph glyph-name="w" unicode="w" horiz-adv-x="555" 
d="M458 0h-124l-53 249h-1l-59 -249h-123l-96 344h112l49 -248h2l53 248h129l52 -248h1l49 248h103z" />
    <glyph glyph-name="x" unicode="x" horiz-adv-x="357" 
d="M226 0l-52 107l-51 -107h-121l106 175l-98 169h127l46 -103l48 103h117l-97 -168l103 -176h-128z" />
    <glyph glyph-name="y" unicode="y" horiz-adv-x="357" 
d="M242 24q-32 -92 -50 -118q-36 -53 -101 -53q-30 0 -67 8v91q18 -7 49 -7q40 0 54 47l-126 352h116l66 -225h2l63 225h107z" />
    <glyph glyph-name="z" unicode="z" horiz-adv-x="291" 
d="M12 0v95l142 162h-139v87h261v-95l-141 -162h144v-87h-267z" />
    <glyph glyph-name="braceleft" unicode="{" horiz-adv-x="231" 
d="M154 -92q-35 0 -59 21q-26 26 -26 69v127q0 49 -51 49v59q51 0 51 44v132q0 45 25 67.5t60 22.5h59v-59h-28q-34 0 -34 -43v-120q0 -67 -69 -73v-1q69 -6 69 -78v-116q0 -42 34 -42h28v-59h-59z" />
    <glyph glyph-name="bar" unicode="|" horiz-adv-x="172" 
d="M49 -8v503h74v-503h-74z" />
    <glyph glyph-name="braceright" unicode="}" horiz-adv-x="231" 
d="M213 174q-51 0 -51 -44v-132q0 -43 -26 -69q-24 -21 -59 -21h-59v59h28q34 0 34 42v121q0 69 69 73v1q-69 5 -69 77v116q0 43 -34 43h-28v59h59q35 0 60 -22.5t25 -67.5v-128q0 -48 51 -48v-59v0z" />
    <glyph glyph-name="asciitilde" unicode="~" horiz-adv-x="356" 
d="M315 161q-25 -57 -74 -57q-25 0 -67 21q-41 22 -60 22q-24 0 -52 -46l-21 72q26 57 74 57q26 0 67 -22q42 -21 60 -21q25 0 52 46l21 -72v0z" />
    <glyph glyph-name="exclam" unicode="!" horiz-adv-x="224" 
d="M152 156h-80l-16 305h111zM62 0v107h100v-107h-100z" />
    <glyph glyph-name="quotedbl" unicode="&#x22;" horiz-adv-x="363" 
d="M200 282v179h79v-179h-79zM85 282v179h78v-179h-78z" />
    <glyph glyph-name="numbersign" unicode="#" horiz-adv-x="364" 
d="M279 267l-9 -72h41v-72h-50l-15 -123h-62l15 123h-51l-16 -123h-63l16 123h-51v72h60l9 72h-51v72h59l16 122h63l-16 -122h52l14 122h63l-15 -122h41v-72h-50zM165 267l-8 -72h51l9 72h-52z" />
    <glyph glyph-name="dollar" unicode="$" horiz-adv-x="364" 
d="M341 135q0 -68 -47 -107q-40 -34 -101 -36v-57h-35v57q-78 0 -120 17l8 94q53 -24 112 -24v112q-55 9 -93 42q-43 39 -43 97q0 67 42 103q38 33 102 36v56h36v-56q70 0 109 -21l-7 -89q-47 26 -102 26v-99q67 -16 98 -43q41 -36 41 -108zM166 385q-47 -2 -47 -44t47 -47
v91zM246 136q0 38 -53 49v-106q53 5 53 57z" />
    <glyph glyph-name="percent" unicode="%" horiz-adv-x="594" 
d="M565 129q0 -137 -103 -137q-105 0 -105 137q0 136 105 136q103 0 103 -136zM216 -15h-66l227 490h65zM237 332q0 -137 -105 -137q-103 0 -103 137t103 137q105 0 105 -137zM490 129q0 77 -28 77q-30 0 -30 -77q0 -78 30 -78q28 0 28 78zM162 332q0 77 -30 77
q-29 0 -29 -77t29 -77q30 0 30 77z" />
    <glyph glyph-name="ampersand" unicode="&#x26;" horiz-adv-x="462" 
d="M337 0q-13 21 -26 35q-43 -43 -128 -43q-65 0 -108 34q-49 39 -49 106q0 83 81 125q-49 43 -49 101q0 57 44 86q37 25 93 25q62 0 99 -25q45 -28 45 -89q0 -40 -28 -69q-16 -18 -61 -47l42 -42t29 -31q26 32 27 83h97q-3 -92 -63 -158l73 -91h-118zM243 352q0 41 -47 41
q-43 0 -43 -41q0 -29 40 -62q50 38 50 62zM256 96q-17 21 -39.5 46.5t-51.5 55.5q-38 -23 -38 -63q0 -29 20 -46.5t46 -17.5q35 0 63 25z" />
    <glyph glyph-name="quotesingle" unicode="'" horiz-adv-x="198" 
d="M60 282v179h79v-179h-79z" />
    <glyph glyph-name="parenleft" unicode="(" horiz-adv-x="231" 
d="M222 499q-85 -149 -85 -296q0 -144 82 -295h-85q-93 140 -93 295q0 144 94 296h87v0z" />
    <glyph glyph-name="parenright" unicode=")" horiz-adv-x="231" 
d="M190 203q0 -144 -95 -295h-87q86 151 86 295q0 147 -86 296h87q95 -136 95 -296z" />
    <glyph glyph-name="asterisk" unicode="*" horiz-adv-x="403" 
d="M245 314l67 -68l-66 -48l-45 85l-47 -84l-65 47l68 67l-94 18l25 77l88 -44l-14 97h81l-13 -95l85 42l25 -77z" />
    <glyph glyph-name="plus" unicode="+" horiz-adv-x="360" 
d="M220 127v-120h-80v120h-120v80h120v120h80v-120h120v-80h-120z" />
    <glyph glyph-name="comma" unicode="," horiz-adv-x="180" 
d="M140 29q0 -59 -52 -102h-95q47 41 47 101v59h100v-58v0z" />
    <glyph glyph-name="hyphen" unicode="-" horiz-adv-x="198" 
d="M18 138v80h162v-80h-162z" />
    <glyph glyph-name="period" unicode="." horiz-adv-x="180" 
d="M40 0v100h100v-100h-100z" />
    <glyph glyph-name="slash" unicode="/" horiz-adv-x="185" 
d="M72 -8h-75l116 477h74z" />
    <glyph glyph-name="registered" unicode="&#xae;" horiz-adv-x="528" 
d="M502 230q0 -98 -70 -168t-168 -70t-168 70t-70 168q0 99 70 169t168 70t168 -70t70 -169zM427 230q0 73 -48 122q-46 49 -115 49q-68 0 -116 -49q-47 -50 -47 -122t47 -122q48 -49 116 -49q69 0 115 49q48 50 48 122zM375 285q0 -68 -73 -71l62 -112h-63l-57 108h-11
v-108h-63v259h105q100 0 100 -76zM312 288q0 23 -46 23h-33v-51h38q41 0 41 28z" />
    <glyph glyph-name="uni0E4E.alt1" 
 />
    <glyph glyph-name="uni0E33.alt1" horiz-adv-x="255" 
d="M130 0v225q0 51 -20 73t-69 22h-41v80h84q146 0 146 -154v-246h-100zM-17 550q0 -21 -16 -35.5t-42 -14.5t-42 14.5t-16 35.5t16 35.5t42 14.5t42 -14.5t16 -35.5z" />
    </font>
</defs>
</svg>
